<?xml version="1.0" encoding="utf-8"?>
<!-- Generator: Adobe Illustrator 23.0.1, SVG Export Plug-In . SVG Version: 6.00 Build 0)  -->
<svg version="1.1" id="Layer_1" xmlns="http://www.w3.org/2000/svg" xmlns:xlink="http://www.w3.org/1999/xlink" x="0px" y="0px"
	 viewBox="0 0 512 512" style="enable-background:new 0 0 512 512;" xml:space="preserve">
<style type="text/css">
	.st0{fill:none;}
	.st1{fill:#2C2C3D;}
</style>
<path class="st0" d="M503,218.2v225.9c0,33.1-64.1,59.9-143.3,59.9s-143.3-26.8-143.3-59.9v-20.6C124.2,442.9,9,415.7,9,370V67.9
	C9,34.8,73.2,8,152.3,8s143.3,26.8,143.3,59.9v96.7C388,145.2,503,172.6,503,218.2L503,218.2z"/>
<path class="st0" d="M359.7,158.3c79.1,0,143.3,26.8,143.3,59.9c0,33.1-64.1,59.9-143.3,59.9c-101.9,0-172.8-43.9-131.6-83.6
	C256.9,166.6,319.5,158.3,359.7,158.3L359.7,158.3z"/>
<path class="st0" d="M295.6,67.9v0.2c-0.3,33-64.3,59.6-143.3,59.6S9.3,101.1,9,68.1C9,68,9,68,9,67.9C9,34.8,73.2,8,152.3,8
	S295.6,34.8,295.6,67.9z"/>
<path class="st0" d="M295.6,68.1v96.5c-29.5,6.2-79.2,23.5-79.2,53.6v205.3c-54.3,11.4-126.9,7.8-172.9-14.6
	c82-70.8,127.8-173.3,125.2-281.6C240,124,295.3,98.8,295.6,68.1L295.6,68.1z"/>
<path class="st0" d="M503,218.2v225.9c0,46.6-120.8,74.4-214.3,52C352.7,439,392,363,388.5,276.9C453.8,271.3,503,247.1,503,218.2z"
	/>
<g>
	<path class="st1" d="M55.3,31.8c5.8,0,10-5.6,8-11c-1.6-4.1-6.2-6.2-10.3-4.7C43.7,19.7,46.8,31.8,55.3,31.8z"/>
	<path class="st1" d="M311.9,282.7c5.3,0.8,8.9-2.7,9.5-6.7c0.6-4.4-2.4-8.5-6.8-9.1c-5.3-0.8-8.9,2.7-9.5,6.7
		C304.5,278,307.5,282.1,311.9,282.7z"/>
	<path class="st1" d="M511,217.2c-0.6-19-17.1-36.3-46.9-48.7c-91.8-38.4-253.8-13.2-255.7,48.7c0,0.6,0,26.4,0,124.3
		C117.3,358.2,17,329.7,17,294.5v-44.2c37.8,33.9,119.1,40.1,169.9,34.9c4.4-0.4,7.6-4.4,7.2-8.8c-0.4-4.4-4.4-7.6-8.8-7.2
		C99,278,17,250.6,17,219.1v-44.2c37.7,33.9,119,40.1,169.9,34.9c4.4-0.4,7.6-4.4,7.2-8.8c-0.4-4.4-4.4-7.6-8.8-7.2
		C99,202.6,17,175.2,17,143.6V99.1c54.2,48.6,215.9,49,270.5,0v32.7c0,4.4,3.6,8,8,8s8-3.6,8-8c0-3.2,0-63.2,0-63.7
		c0.3-55.1-127-82.4-222.4-60.4c-4.3,1-7,5.3-6,9.6c1,4.3,5.3,7,9.6,6c127.8-29.5,272.6,34.9,165.7,79.6
		c-54,22.6-142.4,22.6-196.5,0C22.7,89.7,3,69,29.3,47.2c3.4-2.8,3.9-7.9,1-11.3c-2.8-3.4-7.9-3.9-11.3-1C8.8,43.4,1,54.6,1,68.1
		v301.8c0,53,116.1,79.1,207.4,63.2v10.9c0,62.7,163.5,88.3,255.7,49.7c30.2-12.6,46.9-30.3,46.9-49.7
		C511,439.4,511,217.8,511,217.2z M261.5,183.2c54-22.6,142.4-22.6,196.5,0c90.8,38,0.3,91.1-111.9,86.5c-4.4-0.2-8.2,3.3-8.3,7.7
		c-0.2,4.4,3.3,8.2,7.7,8.3c46.8,1.9,115.9-6.2,149.6-36.4v43.8c0,12.4-13.5,25.1-37,34.9c-26.1,10.9-61,16.9-98.2,16.9
		c-78,0-135.3-26.4-135.3-51.9v-43.8c11.4,10.2,28.6,19,50.7,25.5c4.2,1.2,8.7-1.2,9.9-5.4c1.2-4.2-1.2-8.7-5.4-9.9
		C219,241.7,202,208.1,261.5,183.2L261.5,183.2z M17,370v-44.2c39,35,128.5,42.9,191.4,32v59.2C117.3,433.7,17,405.1,17,370z
		 M457.9,479c-54,22.6-142.4,22.6-196.5,0c-23.5-9.8-37-22.6-37-34.9c0-5.3,0-44.1,0-44.2c47.7,42.7,179.3,48.7,248.3,14.6
		c4-2,5.6-6.8,3.6-10.7c-2-4-6.8-5.6-10.7-3.6c-26.2,13-64.8,20.4-105.9,20.4c-78,0-135.3-26.4-135.3-51.9c0-5.3,0-44.1,0-44.2
		c54.3,48.7,216.2,48.7,270.5,0v119.7C495,456.5,481.5,469.2,457.9,479L457.9,479z"/>
</g>
</svg>
