<?xml version="1.0" encoding="utf-8"?>
<!-- Generator: Adobe Illustrator 23.0.1, SVG Export Plug-In . SVG Version: 6.00 Build 0)  -->
<svg version="1.1" id="Capa_1" xmlns="http://www.w3.org/2000/svg" xmlns:xlink="http://www.w3.org/1999/xlink" x="0px" y="0px"
	 viewBox="0 0 512 512" style="enable-background:new 0 0 512 512;" xml:space="preserve">
<style type="text/css">
	.st0{fill:#0A98C0;}
</style>
<g>
	<path class="st0" d="M505.5,392.3l-17.5-2.5c-1.4-4.3-3.1-8.5-5.2-12.5l10.6-14.2c2.2-3,2-7.2-0.7-9.8L473.5,334
		c-2.6-2.6-6.8-2.9-9.8-0.7L449.5,344c-4-2.1-8.1-3.8-12.4-5.2l-2.5-17.5c-0.5-3.7-3.7-6.5-7.4-6.5h-27.3c-3.7,0-6.9,2.8-7.4,6.5
		l-2.5,17.5c-4.3,1.4-8.4,3.1-12.4,5.2l-12.3-9.2c18.4-20.2,29.8-45.2,33.1-72.1h3.2c4.1,0,7.5-3.4,7.5-7.5s-3.4-7.5-7.5-7.5h-2.2
		c0-0.4,0-0.9,0-1.3c0-11.7-1.5-23.2-4.5-34.4c-1.1-4-5.2-6.4-9.2-5.3c-4,1.1-6.4,5.2-5.3,9.2c2.7,9.9,4,20.1,4,30.5
		c0,32.2-12.8,62.2-36.2,84.4c0,0-0.1,0.1-0.1,0.1c-0.9,0.9-23.3,23.5-30,47.1c-1.5,5.2-2.4,13-2.9,20.5c-0.1,0.4-0.1,0.8-0.1,1.2
		v0.4c-0.3,4.6-0.4,9.1-0.5,12.6h-21.3c-0.8-10.4-2.2-31.3-1.8-53c0.2-11.6,0.9-21.2,1.8-29c9.8-1.5,20.4-4.1,27.9-8.6
		c13.7-8.2,16.5-24.8,10.7-35.1c-4.6-8.2-16-14.5-32.7-5.6c-8.6,4.6-14.5,15-18.2,32c-0.3,1.2-0.5,2.4-0.8,3.7
		c-5.1,0.4-9.5,0.6-12.3,0.6c-2.8,0-7.2-0.1-12.3-0.6c-0.2-1.3-0.5-2.5-0.8-3.7c-3.7-17-9.6-27.5-18.2-32
		c-16.8-8.9-28.1-2.6-32.7,5.6c-3,5.4-3.7,12.2-1.9,18.8c1.9,6.9,6.4,12.7,12.6,16.4c7.5,4.5,18.1,7.1,27.9,8.6
		c0.9,7.9,1.6,17.4,1.8,29c0.4,21.6-1,42.6-1.8,53h-21.3c-0.2-9.7-1-26-3.5-34.8c-6.7-23.5-29.1-46.1-30-47.1c0,0-0.1-0.1-0.1-0.1
		c-23.3-22.2-36.2-52.2-36.2-84.4c0-64.3,52.3-116.6,116.5-116.6c42.3,0,81.3,23,101.9,60c2,3.6,6.6,4.9,10.2,2.9
		c3.6-2,4.9-6.6,2.9-10.2c-7.7-13.9-17.7-26-29.4-36h8.8c4.1,0,7.5-3.4,7.5-7.5s-3.4-7.5-7.5-7.5h-10c-4.1,0-7.5,3.4-7.5,7.5
		c0,0.2,0,0.4,0,0.6c-20.1-14.5-44.3-23.3-69.7-24.7l-23.1-3.3c-2.3-7.7-5.4-15.2-9.2-22.3l17.3-23c2.2-3,2-7.2-0.7-9.8l-28.9-28.9
		c-2.6-2.6-6.8-2.9-9.8-0.7l-23,17.3c-7.1-3.9-14.5-7-22.3-9.2l-4-28.5c-0.5-3.7-3.7-6.5-7.4-6.5H123c-3.7,0-6.9,2.8-7.4,6.5
		l-4,28.5c-7.7,2.3-15.2,5.4-22.3,9.2l-23-17.3c-3-2.3-7.2-2-9.8,0.7L27.6,56.5c-2.6,2.6-2.9,6.8-0.7,9.8l17.3,23
		c-3.9,7.1-7,14.5-9.2,22.3l-28.5,4c-3.7,0.5-6.5,3.7-6.5,7.4V164c0,3.7,2.8,6.9,6.5,7.4l28.5,4c2.3,7.7,5.4,15.2,9.2,22.3l-17.3,23
		c-2.2,3-2,7.2,0.7,9.8l28.9,28.9c2.6,2.6,6.8,2.9,9.8,0.7l23-17.3c7.1,3.9,14.5,7,22.3,9.2l4,28.5c0.5,3.7,3.7,6.5,7.4,6.5h19.6
		c6.6,20.5,18.3,39.1,34.4,54.5c1.1,1.2,20.7,21.2,26.2,40.5c2.5,8.8,3,30.5,3,38.2v0v0v25.1c0,16.6,11.8,30.5,27.5,33.7
		c3.2,15.6,17,27.4,33.5,27.4h1.2c16.5,0,30.4-11.8,33.5-27.4c15.7-3.2,27.5-17.1,27.5-33.7v-9.8l9.5,1.4c1.4,4.3,3.1,8.5,5.2,12.5
		l-10.6,14.2c-2.2,3-2,7.2,0.7,9.8l19.3,19.3c2.6,2.6,6.8,2.9,9.8,0.7l14.1-10.6c4,2.1,8.1,3.8,12.4,5.2l2.5,17.5
		c0.5,3.7,3.7,6.5,7.4,6.5h27.3c3.7,0,6.9-2.8,7.4-6.5l2.5-17.5c4.3-1.4,8.4-3.1,12.4-5.2l14.1,10.6c3,2.3,7.2,2,9.8-0.7l19.3-19.3
		c2.6-2.6,2.9-6.8,0.7-9.8l-10.6-14.2c2.1-4,3.8-8.2,5.2-12.5l17.5-2.5c3.7-0.5,6.5-3.7,6.5-7.4v-27.4
		C512,396,509.2,392.8,505.5,392.3L505.5,392.3z M306.1,294.7c1.8-1,5.2-2.6,8.2-2.6c1.8,0,3.4,0.6,4.4,2.3c2.1,3.6,1,11-5.3,14.9
		c-4.4,2.6-10.8,4.5-17.5,5.8C299.4,299.8,304.1,295.8,306.1,294.7L306.1,294.7z M222.2,309.3c-6.4-3.8-7.4-11.2-5.3-14.9
		c1-1.7,2.6-2.3,4.4-2.3c2.9,0,6.4,1.6,8.2,2.6c2,1,6.7,5.1,10.2,20.4C233,313.8,226.6,312,222.2,309.3z M129.5,272l-3.8-27
		c-0.4-3-2.7-5.5-5.7-6.2c-9.7-2.4-18.9-6.2-27.4-11.4c-2.6-1.6-6-1.4-8.4,0.4l-21.8,16.4l-19.6-19.7l16.4-21.8
		c1.8-2.5,2-5.8,0.4-8.4c-5.2-8.5-9-17.8-11.4-27.5c-0.7-3-3.2-5.2-6.2-5.7L15,157.4v-27.8l26.9-3.8c3-0.4,5.5-2.7,6.2-5.7
		c2.4-9.7,6.2-18.9,11.4-27.5c1.6-2.6,1.4-6-0.4-8.4L42.8,62.5l19.6-19.7l21.8,16.4c2.5,1.8,5.8,2,8.4,0.4c8.5-5.2,17.7-9,27.4-11.4
		c3-0.7,5.2-3.2,5.7-6.2l3.8-27h27.8l3.8,27c0.4,3,2.7,5.5,5.7,6.2c9.7,2.4,18.9,6.2,27.4,11.4c2.6,1.6,6,1.4,8.4-0.4l21.8-16.4
		L244,62.5l-16.4,21.8c-1.8,2.5-2,5.8-0.4,8.4c4.8,7.9,8.4,16.4,10.8,25.4c-12.4,2.9-24.2,7.5-35,13.6
		c-3.4-29.6-28.6-52.6-59.1-52.6c-20,0-38.5,9.9-49.6,26.6c-2.3,3.5-1.4,8.1,2.1,10.4c3.5,2.3,8.1,1.4,10.4-2.1
		c8.3-12.5,22.1-19.9,37.1-19.9c24.5,0,44.5,20,44.5,44.5c0,0.9,0,1.8-0.1,2.8c-14.5,11-26.6,24.9-35.5,40.8
		c-2.9,0.6-5.9,0.9-8.9,0.9c-24.5,0-44.5-20-44.5-44.5c0-4.1-3.4-7.5-7.5-7.5s-7.5,3.4-7.5,7.5c0,32.8,26.7,59.5,59.5,59.5
		c0.4,0,0.9,0,1.3,0c-5.9,14.9-9.1,31.2-9.1,48.2c0,8.7,0.8,17.3,2.5,25.7L129.5,272L129.5,272z M344.1,377.4
		c-2.1,4-3.8,8.2-5.2,12.5l-8.1,1.1c0.4-3.5,0.9-6.6,1.6-8.9c1.2-4.4,3.2-8.8,5.5-13L344.1,377.4z M259.2,359.7
		c-0.2-10-0.7-19.1-1.5-27.3c5.7,0.4,9.7,0.4,10.1,0.4c0.5,0,4.4,0,10.1-0.4c-0.8,8.2-1.4,17.3-1.5,27.3
		c-0.4,21.6,0.9,42.1,1.7,53.1h-20.6C258.3,401.8,259.6,381.3,259.2,359.7L259.2,359.7z M268.4,491.5h-1.2
		c-7.9,0-14.7-4.8-17.7-11.7H286C283.1,486.7,276.3,491.5,268.4,491.5L268.4,491.5z M314.4,445.4c0,10.7-8.7,19.3-19.3,19.3h-54.6
		c-10.6,0-19.3-8.7-19.3-19.3v-17.6h93.2L314.4,445.4L314.4,445.4z M497,420.6l-15.9,2.3c-3,0.4-5.5,2.7-6.2,5.7
		c-1.5,6.2-4,12.2-7.3,17.7c-1.6,2.6-1.4,6,0.4,8.4l9.7,12.9l-10.1,10.1l-12.8-9.7c-2.5-1.8-5.8-2-8.4-0.4
		c-5.5,3.3-11.4,5.8-17.7,7.3c-3,0.7-5.2,3.2-5.7,6.2l-2.3,15.9h-14.3l-2.3-15.9c-0.4-3-2.7-5.5-5.7-6.2c-6.2-1.5-12.2-4-17.7-7.3
		c-2.6-1.6-6-1.4-8.4,0.4l-12.8,9.7l-10.1-10.1l9.7-12.9c1.8-2.5,2-5.8,0.4-8.4c-3.3-5.5-5.8-11.4-7.3-17.7c-0.7-3-3.2-5.2-6.2-5.7
		l-15.9-2.3v-14.3l15.9-2.3c3-0.4,5.5-2.7,6.2-5.7c1.5-6.2,4-12.2,7.3-17.7c1.6-2.6,1.4-6-0.4-8.4l-9.7-12.9l10.1-10.1l12.8,9.7
		c2.5,1.8,5.8,2,8.4,0.4c5.5-3.3,11.4-5.8,17.7-7.3c3-0.7,5.2-3.2,5.7-6.2l2.3-15.9h14.3l2.3,15.9c0.4,3,2.7,5.5,5.7,6.2
		c6.2,1.5,12.2,4,17.7,7.3c2.6,1.6,6,1.4,8.4-0.4l12.8-9.7l10.1,10.1l-9.7,12.9c-1.8,2.5-2,5.8-0.4,8.4c3.3,5.5,5.8,11.4,7.3,17.7
		c0.7,3,3.2,5.2,6.2,5.7l15.9,2.3V420.6z"/>
	<path class="st0" d="M413.5,369.3c-24.3,0-44.1,19.8-44.1,44.1c0,4.1,3.4,7.5,7.5,7.5c4.1,0,7.5-3.4,7.5-7.5
		c0-16,13-29.1,29.1-29.1s29.1,13,29.1,29.1s-13,29.1-29.1,29.1c-7.1,0-13.9-2.6-19.3-7.3c-3.1-2.8-7.9-2.5-10.6,0.6
		c-2.8,3.1-2.5,7.9,0.6,10.6c8.1,7.2,18.4,11.1,29.2,11.1c24.3,0,44.1-19.8,44.1-44.1C457.6,389.1,437.8,369.3,413.5,369.3z"/>
	<path class="st0" d="M387.2,146.4h10c4.1,0,7.5-3.4,7.5-7.5s-3.4-7.5-7.5-7.5h-10c-4.1,0-7.5,3.4-7.5,7.5
		C379.7,143.1,383.1,146.4,387.2,146.4z"/>
	<path class="st0" d="M452,153.7c2.5,1.5,4.8,3.2,7,5.1c3.3,2.9,8.5,2.3,11-1.3c2.2-3.1,1.7-7.5-1.2-10c-2.8-2.5-5.9-4.7-9.1-6.7
		c-3.5-2.1-8.2-1-10.3,2.5C447.3,146.9,448.4,151.6,452,153.7z"/>
	<path class="st0" d="M422.3,146.4c3.2,0,6.3,0.1,9.5,0.3c4,0.3,7.6-2.7,8-6.7c0.5-4.1-2.5-7.8-6.6-8.3c-3.6-0.4-7.2-0.4-10.8-0.4
		c-4.1,0-7.5,3.4-7.5,7.5C414.8,143.1,418.2,146.4,422.3,146.4L422.3,146.4z"/>
	<path class="st0" d="M435.1,246.8c-2.8,0.5-5.8,0.8-8.7,0.8c-4.1,0-7.5,3.5-7.4,7.6c0,4.1,3.4,7.4,7.5,7.4h0.1
		c3.8,0,7.6-0.4,11.2-1.1c4.1-0.8,6.8-4.7,6-8.8C443.1,248.7,439.2,246,435.1,246.8L435.1,246.8z"/>
	<path class="st0" d="M461.7,232.7c-2,2.1-4.3,4-6.7,5.6c-3.1,2.2-4.1,6.5-2.2,9.8c2.1,3.9,7.3,5.1,10.9,2.5c3.1-2.2,6-4.6,8.6-7.3
		c2.9-2.9,2.9-7.7,0-10.6C469.4,229.7,464.6,229.8,461.7,232.7L461.7,232.7z"/>
	<path class="st0" d="M477.8,224.1c3.8,1.4,8.2-0.6,9.6-4.5c1.3-3.5,2.3-7.2,3-10.9c0.7-4.1-2-8-6.1-8.7c-4.1-0.7-8,2-8.7,6.1
		c-0.5,2.9-1.3,5.7-2.3,8.4C471.9,218.4,473.9,222.7,477.8,224.1z"/>
	<path class="st0" d="M471.9,176.2c1.2,2.6,2.2,5.4,2.9,8.2c1,4.1,5.4,6.5,9.4,5.3c3.8-1.1,6.1-5.2,5.1-9.1
		c-0.9-3.6-2.2-7.2-3.7-10.7c-1.7-3.8-6.2-5.5-9.9-3.8C471.9,168,470.2,172.4,471.9,176.2z"/>
	<path class="st0" d="M35.5,310c-3.9-1.5-8.2,0.5-9.7,4.4c-1.3,3.5-2.4,7.2-3.1,10.9c-0.8,4.1,1.9,8,6,8.8c0.5,0.1,1,0.1,1.4,0.1
		c3.5,0,6.7-2.5,7.4-6.1c0.5-2.8,1.3-5.7,2.4-8.4C41.3,315.8,39.3,311.5,35.5,310z"/>
	<path class="st0" d="M60.5,380.7c-2.5-1.5-4.8-3.3-7-5.2c-3.1-2.8-7.8-2.5-10.6,0.6s-2.5,7.8,0.6,10.6c2.8,2.5,5.9,4.8,9,6.8
		c3.8,2.3,8.8,0.8,10.8-3.1C64.9,386.9,63.7,382.7,60.5,380.7z"/>
	<path class="st0" d="M125,388.3h-10c-4.2,0-7.5,3.4-7.5,7.5s3.4,7.5,7.5,7.5h10c4.1,0,7.5-3.4,7.5-7.5S129.1,388.3,125,388.3z"/>
	<path class="st0" d="M160,388.3h-10c-4.1,0-7.5,3.4-7.5,7.5s3.4,7.5,7.5,7.5h10c4.1,0,7.5-3.4,7.5-7.5S164.2,388.3,160,388.3z"/>
	<path class="st0" d="M195.1,388.3h-10c-4.1,0-7.5,3.4-7.5,7.5s3.4,7.5,7.5,7.5h10c4.1,0,7.5-3.4,7.5-7.5S199.3,388.3,195.1,388.3z"
		/>
	<path class="st0" d="M40.8,358c-1.2-2.7-2.1-5.4-2.8-8.2c-1-4-5-6.5-9.1-5.5s-6.5,5-5.5,9.1c0.9,3.7,2.1,7.3,3.6,10.7
		c1.7,4,6.6,5.6,10.4,3.6C40.8,365.8,42.3,361.5,40.8,358z"/>
	<path class="st0" d="M89.9,388.3c-3,0-6.1,0-9.1-0.4c-4.1-0.5-7.9,2.4-8.4,6.5s2.4,7.9,6.5,8.4c3.6,0.4,7.3,0.5,10.9,0.5
		c4.2,0,7.5-3.4,7.5-7.5C97.4,391.7,94.1,388.3,89.9,388.3z"/>
	<path class="st0" d="M46.4,303.8c1.9,0,3.8-0.7,5.3-2.2c2.1-2,4.3-3.9,6.7-5.6c3.4-2.4,4.3-7,1.9-10.5c-2.4-3.4-7-4.3-10.5-1.9
		c-3.1,2.1-6,4.6-8.7,7.2C36.4,295.5,39.8,303.8,46.4,303.8z"/>
	<path class="st0" d="M78.4,287.9c2.8-0.5,5.8-0.7,8.7-0.7c4.2,0,7.5-3.4,7.5-7.5c0-4.1-3.4-7.5-7.5-7.5c-3.8,0-7.6,0.3-11.2,1
		c-4,0.7-6.8,4.6-6.1,8.5C70.3,285.7,74.3,288.6,78.4,287.9L78.4,287.9z"/>
</g>
</svg>
