<?xml version="1.0" encoding="utf-8"?>
<!-- Generator: Adobe Illustrator 23.0.1, SVG Export Plug-In . SVG Version: 6.00 Build 0)  -->
<svg version="1.1" id="Layer_5" xmlns="http://www.w3.org/2000/svg" xmlns:xlink="http://www.w3.org/1999/xlink" x="0px" y="0px"
	 viewBox="0 0 512 512" style="enable-background:new 0 0 512 512;" xml:space="preserve">
<style type="text/css">
	.st0{fill:#0A98C0;}
</style>
<path class="st0" d="M440,376c-23.6,0-44.3,12.9-55.3,32h-48.7C411.1,376.6,464,302.4,464,216C464,101.3,370.7,8,256,8
	C144,8,52.4,97,48.2,208H22.9L80,276.5l57.1-68.5h-24.9c4.2-75.7,67.1-136,143.8-136c79.4,0,144,64.6,144,144s-64.6,144-144,144h-88
	v96h210.1c7.1,27.6,32.1,48,61.9,48c35.3,0,64-28.7,64-64S475.3,376,440,376z M256,376c88.2,0,160-71.8,160-160S344.2,56,256,56
	S96,127.8,96,216v8h6.9L80,251.5L57.1,224H64v-8c0-105.9,86.1-192,192-192s192,86.1,192,192s-86.1,192-192,192h-72v-32H256z
	 M184,440v-16h194.1c-1.3,5.1-2.1,10.5-2.1,16H184z M440,488c-26.5,0-48-21.5-48-48s21.5-48,48-48s48,21.5,48,48S466.5,488,440,488z
	"/>
<path class="st0" d="M466.3,418.3L432,452.7l-10.3-10.3l-11.3,11.3l21.7,21.7l45.7-45.7L466.3,418.3z"/>
<path class="st0" d="M128,296H32c-13.2,0-24,10.8-24,24v160c0,13.2,10.8,24,24,24h96c13.2,0,24-10.8,24-24V320
	C152,306.8,141.2,296,128,296z M136,480c0,4.4-3.6,8-8,8H32c-4.4,0-8-3.6-8-8V320c0-4.4,3.6-8,8-8h96c4.4,0,8,3.6,8,8V480z"/>
<path class="st0" d="M264,272c30.9,0,56-25.1,56-56s-25.1-56-56-56s-56,25.1-56,56S233.1,272,264,272z M264,176
	c22.1,0,40,17.9,40,40s-17.9,40-40,40s-40-17.9-40-40S241.9,176,264,176z"/>
<path class="st0" d="M160,246.2l19.3,4.8l-10.2,17.1l42.8,42.8l17.1-10.2l4.8,19.3h60.5l4.8-19.3l17.1,10.2l42.8-42.8l-10.2-17.1
	l19.3-4.8v-60.5l-19.3-4.8l10.2-17.1l-42.8-42.8l-17.1,10.2l-4.8-19.3h-60.5l-4.8,19.3l-17.1-10.2l-42.8,42.8l10.2,17.1l-19.3,4.8
	V246.2z M176,198.2l19.6-4.9l4-9.8l-10.4-17.3l25.1-25.1l17.3,10.4l9.8-4l4.9-19.6h35.5l4.9,19.6l9.8,4l17.3-10.4l25.1,25.1
	l-10.4,17.3l4,9.8l19.6,4.9v35.5l-15.6,3.9l-4.3,1.6l-3.7,9.1l10.4,17.3l-25.1,25.1l-17.3-10.4l-9.8,4l-4.9,19.6h-35.5l-3.9-15.6
	l-1.6-4.3l-9.1-3.7l-17.3,10.4l-25.1-25.1l10.4-17.3l-4-9.8l-19.6-4.9V198.2z"/>
<path class="st0" d="M264,240c13.2,0,24-10.8,24-24s-10.8-24-24-24s-24,10.8-24,24S250.8,240,264,240z M264,208c4.4,0,8,3.6,8,8
	s-3.6,8-8,8s-8-3.6-8-8S259.6,208,264,208z"/>
<path class="st0" d="M40,328h80v16H40V328z"/>
<path class="st0" d="M40,360h80v16H40V360z"/>
<path class="st0" d="M40,392h80v16H40V392z"/>
<path class="st0" d="M40,424h80v16H40V424z"/>
<path class="st0" d="M104,456h16v16h-16V456z"/>
<path class="st0" d="M72,456h16v16H72V456z"/>
<path class="st0" d="M40,456h16v16H40V456z"/>
</svg>
