<svg id="Capa_1" data-name="Capa 1" xmlns="http://www.w3.org/2000/svg" viewBox="0 0 968.88 1064"><defs><style>.cls-1{fill:#95a6db;}.cls-2{fill:#b8c9ff;}.cls-3{fill:#150035;}.cls-4{fill:#fafafa;}.cls-5{fill:#dde8fd;}.cls-6{fill:#6a86ce;}.cls-7{fill:#f37a50;}.cls-8{fill:#de623c;}.cls-9{fill:#0b0754;}.cls-10{fill:#060534;}.cls-11{fill:#0a98c0;}.cls-12{fill:#494c7f;}.cls-13{fill:#7c9af2;}.cls-14{fill:#0d5a52;}.cls-15{fill:#fff;}.cls-16{fill:#d4deff;}.cls-17{fill:#2c2858;}.cls-18{fill:#f584a0;}.cls-19{fill:#bf5434;}.cls-20{fill:#fdfdfd;}</style></defs><title>nosotros</title><polygon class="cls-1" points="891.42 264.46 804.74 211.08 718.05 264.46 717.66 263.25 804.74 209.67 804.94 209.77 891.82 263.25 891.42 264.46"/><path class="cls-1" d="M824.8,253.18A1.83,1.83,0,1,1,823,251,2,2,0,0,1,824.8,253.18Z" transform="translate(-18.12 -43)"/><rect class="cls-2" x="650.43" y="273.23" width="308.61" height="206.11"/><path class="cls-3" d="M977.16,305.54H658.72V533H987V305.54Zm-308.6,216.8V316.23H977V522.34Z" transform="translate(-18.12 -43)"/><path class="cls-4" d="M905.63,499H762.32c-2.54,0-4.59-2.56-4.59-5.72V339.44c0-3.16,2-5.72,4.59-5.72s4.58,2.56,4.58,5.72V487.51H905.63c2.53,0,4.59,2.56,4.59,5.72S908.16,499,905.63,499Z" transform="translate(-18.12 -43)"/><path class="cls-4" d="M777.76,360.18a7,7,0,0,1,.46-4.25c1.25-2.75,4-3.71,6.25-2.15l45.2,31.94c1.9,1.35,2.45,6.11,3.11,10.15,2,12.54,6.45,34.35,6.45,34.35L868,452c2.28,1.4,3.21,4.83,2.09,7.66s-3.88,4-6.15,2.6c0,0-22.89-17-30.64-22a8.62,8.62,0,0,1-4-6.32c-1-9.33-7.44-40.57-7.44-40.57l-41.91-29.61A5.76,5.76,0,0,1,777.76,360.18Z" transform="translate(-18.12 -43)"/><polygon class="cls-4" points="832.54 423.64 843.74 411.64 844.58 393.26 867.45 426.23 832.54 423.64"/><path class="cls-1" d="M957.4,344.61H904.3c-1.88,0-3.41-1.91-3.41-4.26h0c0-2.35,1.53-4.26,3.41-4.26h53.1c1.89,0,3.42,1.91,3.42,4.26h0C960.82,342.7,959.29,344.61,957.4,344.61Z" transform="translate(-18.12 -43)"/><path class="cls-1" d="M957.4,358.28H904.3c-1.88,0-3.41-1.91-3.41-4.26h0c0-2.35,1.53-4.25,3.41-4.25h53.1c1.89,0,3.42,1.9,3.42,4.25h0C960.82,356.37,959.29,358.28,957.4,358.28Z" transform="translate(-18.12 -43)"/><path class="cls-1" d="M957.4,371.53H904.3c-1.88,0-3.41-1.9-3.41-4.25h0c0-2.35,1.53-4.26,3.41-4.26h53.1c1.89,0,3.42,1.91,3.42,4.26h0C960.82,369.63,959.29,371.53,957.4,371.53Z" transform="translate(-18.12 -43)"/><path class="cls-1" d="M957.4,411.19H904.3c-1.88,0-3.41-1.91-3.41-4.26h0c0-2.35,1.53-4.26,3.41-4.26h53.1c1.89,0,3.42,1.91,3.42,4.26h0C960.82,409.28,959.29,411.19,957.4,411.19Z" transform="translate(-18.12 -43)"/><path class="cls-1" d="M945,424.44H904.3c-1.88,0-3.41-1.91-3.41-4.26h0c0-2.35,1.53-4.25,3.41-4.25H945c1.89,0,3.42,1.9,3.42,4.25h0C948.44,422.53,946.91,424.44,945,424.44Z" transform="translate(-18.12 -43)"/><path class="cls-1" d="M738.05,346.61H685c-1.88,0-3.41-1.9-3.41-4.25h0c0-2.35,1.53-4.26,3.41-4.26h53.1c1.89,0,3.42,1.91,3.42,4.26h0C741.47,344.71,739.94,346.61,738.05,346.61Z" transform="translate(-18.12 -43)"/><path class="cls-1" d="M725.68,359.87H685c-1.88,0-3.41-1.91-3.41-4.26h0c0-2.35,1.53-4.25,3.41-4.25h40.73c1.88,0,3.41,1.9,3.41,4.25h0C729.09,358,727.56,359.87,725.68,359.87Z" transform="translate(-18.12 -43)"/><g id="с"><path id="с-2" data-name="с" class="cls-3" d="M813.36,708.61H549c-6.22,0-11.26-4.23-11.26-9.44h0c0-5.21,5-9.44,11.26-9.44H813.36c6.22,0,11.26,4.23,11.26,9.44h0C824.62,704.38,819.58,708.61,813.36,708.61Z" transform="translate(-18.12 -43)"/><rect class="cls-3" x="545.88" y="663.17" width="17.2" height="214.22"/><rect class="cls-3" x="765.23" y="663.17" width="17.2" height="214.22"/></g><rect class="cls-5" x="564.78" y="632.05" width="102.06" height="14.3"/><rect class="cls-5" x="559.34" y="618.5" width="102.06" height="14.3"/><rect class="cls-5" x="561.36" y="611.72" width="102.06" height="7.15"/><rect class="cls-5" x="566.66" y="604.57" width="102.06" height="7.15"/><rect class="cls-5" x="554.99" y="593.24" width="102.06" height="11.32"/><rect class="cls-5" x="561.36" y="577.7" width="102.06" height="15.54"/><polygon class="cls-6" points="601.37 594.22 634.39 594.22 638.64 605.98 601.37 594.22"/><polygon class="cls-6" points="570.34 624.16 607.34 624.16 579.49 634.74 570.34 624.16"/><polygon class="cls-6" points="561.36 581.84 552.84 585.47 561.36 586.96 592.88 585.47 561.36 581.84"/><polygon class="cls-6" points="648.18 577.7 663.42 577.7 673.91 586.96 663.03 581.17 648.18 577.7"/><rect class="cls-6" x="608.89" y="637.47" width="57.95" height="0.83"/><rect class="cls-6" x="561.36" y="617.67" width="57.95" height="0.83"/><rect class="cls-6" x="567.62" y="614.88" width="33.53" height="0.83"/><rect class="cls-6" x="605.47" y="587.94" width="57.95" height="0.83"/><rect class="cls-6" x="611.73" y="585.15" width="33.53" height="0.83"/><rect class="cls-5" x="696.81" y="634.96" width="102.06" height="14.3" transform="translate(1477.56 1241.23) rotate(180)"/><rect class="cls-5" x="702.25" y="621.41" width="102.06" height="14.3" transform="translate(1488.44 1214.12) rotate(180)"/><rect class="cls-5" x="700.23" y="614.63" width="102.06" height="7.15" transform="translate(1484.4 1193.41) rotate(180)"/><rect class="cls-5" x="694.93" y="607.48" width="102.06" height="7.15" transform="translate(1473.79 1179.11) rotate(180)"/><rect class="cls-5" x="706.6" y="596.15" width="102.06" height="11.32" transform="translate(1497.13 1160.63) rotate(180)"/><rect class="cls-5" x="700.23" y="580.61" width="102.06" height="15.54" transform="translate(1484.4 1133.77) rotate(180)"/><polygon class="cls-6" points="744.16 554.13 711.13 554.13 706.89 565.88 744.16 554.13"/><polygon class="cls-6" points="775.19 584.07 738.19 584.07 766.04 594.65 775.19 584.07"/><polygon class="cls-6" points="784.17 541.75 792.69 545.38 784.17 546.87 752.64 545.38 784.17 541.75"/><polygon class="cls-6" points="697.34 537.61 682.11 537.61 671.62 546.87 682.5 541.09 697.34 537.61"/><rect class="cls-6" x="678.69" y="597.38" width="57.95" height="0.83"/><rect class="cls-6" x="726.22" y="577.58" width="57.95" height="0.83"/><rect class="cls-6" x="744.38" y="574.79" width="33.53" height="0.83"/><rect class="cls-5" x="696.81" y="669.31" width="102.06" height="14.3" transform="translate(1477.56 1309.92) rotate(180)"/><rect class="cls-5" x="702.25" y="655.75" width="102.06" height="14.3" transform="translate(1488.44 1282.81) rotate(180)"/><rect class="cls-5" x="700.23" y="648.97" width="102.06" height="7.15" transform="translate(1484.4 1262.1) rotate(180)"/><rect class="cls-5" x="700.23" y="682.7" width="102.06" height="7.15" transform="translate(1484.4 1329.55) rotate(180)"/><polygon class="cls-6" points="775.19 618.42 738.19 618.42 766.04 629 775.19 618.42"/><rect class="cls-6" x="678.69" y="631.73" width="57.95" height="0.83"/><rect class="cls-6" x="726.22" y="611.93" width="57.95" height="0.83"/><rect class="cls-6" x="744.38" y="609.14" width="33.53" height="0.83"/><rect class="cls-6" x="682.11" y="547.85" width="57.95" height="0.83"/><rect class="cls-6" x="700.27" y="545.06" width="33.53" height="0.83"/><path class="cls-5" d="M182.72,753.74l17.7,37.68s55.4-14.27,78.78,9.44c-2.53-26.74-14.74-55.1-29.88-63.42C213.34,734.16,182.72,753.74,182.72,753.74Z" transform="translate(-18.12 -43)"/><path class="cls-5" d="M719.19,813.53l-27,27.76s-48.06-37.2-76.57-25c9.78-24,29.08-45.38,45.59-46.69C695.85,782,719.19,813.53,719.19,813.53Z" transform="translate(-18.12 -43)"/><path class="cls-5" d="M302.36,829.89l-6.07,44.92s57.54,35.83,98.5-4.22c-5-11.49-3.63-40.24,7.4-60.19C381.71,803.09,335,850.16,302.36,829.89Z" transform="translate(-18.12 -43)"/><path class="cls-5" d="M353.49,1024.32l46.74,33.41s67.59-.57,80.52-40.17c-9.05-7-27.93-10.59-39.11-30.24C417.12,1022.52,367.23,997,353.49,1024.32Z" transform="translate(-18.12 -43)"/><polygon id="v-2" class="cls-7" points="354.75 481.39 354.77 481.39 368.73 481.45 371.89 522.56 355.6 533.29 338.22 522.68 341.03 481.45 354.75 481.39"/><path class="cls-7" d="M334.52,506.25c8.59,26.77,29.23,41.64,46.09,33.23s23.57-36.93,15-63.7-29.23-41.64-46.09-33.23S325.93,479.48,334.52,506.25Z" transform="translate(-18.12 -43)"/><path d="M388.26,484.57a2.78,2.78,0,0,0,4.39,1,4.58,4.58,0,0,0,.79-5.48,2.77,2.77,0,0,0-4.39-1A4.56,4.56,0,0,0,388.26,484.57Z" transform="translate(-18.12 -43)"/><path d="M364.6,496.61c1.08,1.93,3.21,2.41,4.76,1.06a5,5,0,0,0,.85-5.93c-1.08-1.94-3.21-2.41-4.76-1.07A5,5,0,0,0,364.6,496.61Z" transform="translate(-18.12 -43)"/><path class="cls-8" d="M383.46,490.85c4.27,4.2,9.61,9.26,9.61,9.26a10.55,10.55,0,0,1-6,9.2c2.17-2.46,4.09-5.73,1.82-9.52S383.46,490.85,383.46,490.85Z" transform="translate(-18.12 -43)"/><path class="cls-9" d="M358.37,494A1.64,1.64,0,0,1,358,494a2,2,0,0,1-1.16-2.37c.55-2.88,2.86-8.34,7.67-8.37a2,2,0,0,1,0,3.93c-3.56,0-4.61,5.3-4.62,5.35A1.68,1.68,0,0,1,358.37,494Z" transform="translate(-18.12 -43)"/><path class="cls-9" d="M385,476.24a1.09,1.09,0,0,1-.67-.23,1.87,1.87,0,0,1-.46-2.24c.05-.12,1.44-3,4-3.6,1.78-.41,3.63.31,5.48,2.16a1.93,1.93,0,0,1,.2,2.3,1.14,1.14,0,0,1-1.84.26c-1.23-1.23-2.36-1.73-3.36-1.5a4,4,0,0,0-2.26,2A1.28,1.28,0,0,1,385,476.24Z" transform="translate(-18.12 -43)"/><path class="cls-9" d="M322.79,486.26c-7.27-25.8,10.43-40.63,10.43-40.63s-4.75-.53-5.31-8.84a14.29,14.29,0,0,0,11-.3c23.6-10.65,39.84-10.51,39.84,2.08,0,4.48,15.59,1.41,14.28,31.55.09-2.13-5.48-14.52-10.74-15.76s-.51,7.54-11.51,9.42-19.25-1.46-26,6.34c-5.3,6.8-6.62,41.42-5.81,43.51C337.13,508.85,326,497.59,322.79,486.26Z" transform="translate(-18.12 -43)"/><path class="cls-9" d="M398.84,490.85s1,15.71-.81,20.56c-1.9-6.3-5.95.38-9.77,1-9.21,1.52-25.83-2.31-27.48,14.92-11.25,4.44-21.8-25.61-21.8-25.61-.65,33.57,19,52.63,47.41,47C405.06,545.1,406.8,512.67,398.84,490.85Z" transform="translate(-18.12 -43)"/><path class="cls-8" d="M379.42,523a21.41,21.41,0,0,1-5.69-2.78,1.49,1.49,0,0,1-.43-1.77,1,1,0,0,1,1.42-.54c4.36,2.91,8.27,3.74,11.62,2.46,4.15-1.57,6-5.92,6.06-6a1,1,0,0,1,1.41-.54,1.48,1.48,0,0,1,.45,1.76c-.09.22-2.28,5.33-7.26,7.24A11.47,11.47,0,0,1,379.42,523Z" transform="translate(-18.12 -43)"/><path class="cls-7" d="M338.71,502c4.75,3.32,6.82,9.93,4.64,14.77s-7.79,6.06-12.53,2.74-6.82-9.93-4.64-14.77S334,498.63,338.71,502Z" transform="translate(-18.12 -43)"/><path class="cls-8" d="M338,516.45a1.53,1.53,0,0,0,.37-.51c1.3-3,1.09-6.08-.58-8.2a4.93,4.93,0,0,0-6.52-1.5,1.69,1.69,0,0,0-.53,2,1.09,1.09,0,0,0,1.6.65,2.92,2.92,0,0,1,3.75.91c.93,1.19,1,2.87.18,4.73a1.69,1.69,0,0,0,.49,2A1,1,0,0,0,338,516.45Z" transform="translate(-18.12 -43)"/><path d="M389,1073.36c3-10.06,9.32-11.18,9.32-11.18,12.35,21.23,42.66,8.21,41.66,36.92-46.1-.36-65.26,0-65.26,0,.06-6.59,1-22.25,2-28.38l2.41.55Z" transform="translate(-18.12 -43)"/><path d="M320.06,1073.92c3-10.06,9.32-11.18,9.32-11.18,12.35,21.23,42.66,8.2,41.66,36.92-46.1-.37-65.26,0-65.26,0,.06-6.6,1-22.25,2-28.38l2.4.55Z" transform="translate(-18.12 -43)"/><path class="cls-10" d="M419.69,738s7.49,136.09,4.44,166.34-13.8,69-12.58,169.12c-15,4.69-36.8,0-36.8,0s-3.23-113.16,12.66-163.7C381,860.7,360.22,748.25,360.22,748.25Z" transform="translate(-18.12 -43)"/><path class="cls-10" d="M391.25,741.75s-15.12,152.78-22.51,181.76S346.91,977,333.52,1075.57a262.44,262.44,0,0,1-29.82,0s2.08-125,26.13-153.48c.82-49.79-3.89-179.36-3.89-179.36Z" transform="translate(-18.12 -43)"/><g id="v"><path id="h-5" class="cls-4" d="M321.58,568.36s26.25-11.46,35-6.2c27.2,16.32,33.43,0,33.43,0,8.7.93,34.93,6.2,34.93,6.2,0,36.53,2,73.18,1.42,100.82-.37,24.07,3.31,89.57,3.31,89.57s-28.94,9.46-56.32,9.71c-27.37-.23-55.23-9.33-55.23-9.33s1.46-66.34,2.67-91C320.4,640.49,321.58,604.79,321.58,568.36Z" transform="translate(-18.12 -43)"/></g><g id="c"><path id="c-2" data-name="c" class="cls-11" d="M471.6,622.65c-10.84-32.23-43-52.73-46.66-54.29l-7.46,41.37a203,203,0,0,1,26.66,23.71c-1.9,11.52-1.58,22.81-6.93,37.38,0,0,4.64-8,10.37-3.26,5.57,4.6,15.82-4.79,15.82-4.79S479.87,647.26,471.6,622.65Z" transform="translate(-18.12 -43)"/></g><g id="c-3" data-name="c"><g id="c-4" data-name="c"><g id="c-5" data-name="c"><path id="c-6" data-name="c" class="cls-1" d="M465.56,707.08a2.46,2.46,0,0,0,.56.15h.62a3.19,3.19,0,0,0,2.49-2.55l28.89-116.09a5.81,5.81,0,0,0,.11-.71,3.38,3.38,0,0,0,0-.45,2.61,2.61,0,0,0,0-.28,2,2,0,0,0,0-.24,3.54,3.54,0,0,0-2-2.9,2.12,2.12,0,0,0-.55-.14,2.22,2.22,0,0,0-.63,0H422.3L393.17,707.23h72.44Z" transform="translate(-18.12 -43)"/><path id="c-7" data-name="c" class="cls-6" d="M787,708c-1.55-.6-3.2.48-3.68,2.41l-28.7,115.8-.06.27a3.87,3.87,0,0,0,1.92,4.56h0c1.55.6,3.19-.48,3.67-2.41L788.9,712.59A3.9,3.9,0,0,0,787,708Z" transform="translate(-18.12 -43)"/></g></g><path id="c-8" data-name="c" class="cls-7" d="M477.9,654.66a2.64,2.64,0,0,1,.87-.47l-.1-.17c-1.81-3.4-1.69-7.47.27-9.08a2.83,2.83,0,0,1,1-.55c-.5-2.52-.05-4.92,1.35-6.08a2.8,2.8,0,0,1,1.88-.65c-.64-2.48-.14-5.07,1.43-6.37,2-1.61,4.8-.57,6.34,2.34s1.21,6.56-.75,8.18a3.21,3.21,0,0,1-1.62.73c1.3,3.16,1,6.63-.73,8.09a2.83,2.83,0,0,1-1,.55c.5,2.51.05,4.92-1.35,6.07a2.78,2.78,0,0,1-1.73.66c.65,2.16.23,4.49-1.14,5.63-1.66,1.37-4.05.48-5.36-2S476.24,656,477.9,654.66Z" transform="translate(-18.12 -43)"/><path class="cls-7" d="M388.51,647.32l6.63-4.78s1.83-11.72,12.47-12c-1.21,4.92-3,12-3,12s5.24,5.07,17.66-3.61c12.15-3.4,7,7.64,11,8.43,5.94,1.17-4.33,15.72-16.46,17.95-15.69,2.88-17.55-1.13-17.55-1.13l-8.88,3.87Z" transform="translate(-18.12 -43)"/><path id="c-9" data-name="c" class="cls-11" d="M327.18,659.84c22.15-1.92,59.94-15.57,59.94-15.57,6.05,11.57,4.38,26.93,4.38,26.93-34.41,37.6-86.18,49.76-102.07,40.7-14.5-8.26-4.27-118.33,32.15-143.54h0C334.06,594.7,327.18,659.84,327.18,659.84Z" transform="translate(-18.12 -43)"/></g><path d="M684.21,1063.15c-12.34,20.52-42.65,7.93-41.65,35.69,46.1-.35,65.26,0,65.26,0-.07-6.37-1-21.51-2-27.43Z" transform="translate(-18.12 -43)"/><path d="M753.18,1063.69c-12.34,20.52-42.65,7.93-41.65,35.69,46.1-.36,65.25,0,65.25,0-.06-6.37-1-21.51-2-27.44Z" transform="translate(-18.12 -43)"/><path class="cls-10" d="M662.87,749.78s-7.48,131.56-4.44,160.81,13.81,66.74,12.59,163.49c15,4.53,36.8,0,36.8,0s3.22-109.4-12.66-158.26c6.46-47.46,27.18-156.16,27.18-156.16Z" transform="translate(-18.12 -43)"/><path class="cls-10" d="M691.32,753.37s15.11,147.7,22.51,175.72,21.82,51.7,35.22,147c15.44.93,33.84-3.81,33.84-3.81s-6.11-117.08-30.16-144.57c-.81-48.13,3.89-173.39,3.89-173.39Z" transform="translate(-18.12 -43)"/><path class="cls-7" d="M752.87,511.74c-8.19,25.52-27.87,39.7-43.94,31.68s-22.47-35.21-14.28-60.73S722.51,443,738.59,451,761.06,486.22,752.87,511.74Z" transform="translate(-18.12 -43)"/><path d="M701.64,491.07a2.66,2.66,0,0,1-4.19.94,4.39,4.39,0,0,1-.76-5.23,2.67,2.67,0,0,1,4.2-.94A4.38,4.38,0,0,1,701.64,491.07Z" transform="translate(-18.12 -43)"/><path d="M724.2,502.54a2.88,2.88,0,0,1-4.54,1,4.73,4.73,0,0,1-.82-5.66,2.88,2.88,0,0,1,4.54-1A4.73,4.73,0,0,1,724.2,502.54Z" transform="translate(-18.12 -43)"/><path class="cls-8" d="M706.21,497.06c-4.07,4-9.16,8.83-9.16,8.83a10,10,0,0,0,5.68,8.77c-2.07-2.35-3.89-5.47-1.73-9.08S706.21,497.06,706.21,497.06Z" transform="translate(-18.12 -43)"/><path d="M730.13,500.1a1.61,1.61,0,0,1-1.46-1.44c0-.2-1-5.08-4.41-5.1a1.92,1.92,0,0,1,0-3.75c4.58,0,6.79,5.23,7.31,8a1.92,1.92,0,0,1-1.11,2.26A1.41,1.41,0,0,1,730.13,500.1Z" transform="translate(-18.12 -43)"/><path d="M704.79,483.13a1.23,1.23,0,0,1-1.07-.77,4,4,0,0,0-2.18-2c-.95-.21-2,.28-3.18,1.44a1.09,1.09,0,0,1-1.76-.25,1.85,1.85,0,0,1,.19-2.19c1.77-1.76,3.53-2.45,5.22-2.06,2.49.57,3.81,3.32,3.86,3.44a1.79,1.79,0,0,1-.44,2.13A1.06,1.06,0,0,1,704.79,483.13Z" transform="translate(-18.12 -43)"/><path d="M747.15,514.4c-5.92-23.74,1.57-36.36,1.57-36.36-5.09-1.27-7.06.92-7.06.92-2.78-7.1-.63-12.19-.63-12.19-10.51-5.1-15.74,3.38-25.23,6.24-13,3.92-29-2.54-30.53-22.31-.22-2.86,2.3-4.71,4.22-3.11a10.38,10.38,0,0,0,7.07,2.58A18,18,0,0,1,693.7,441c-.07-2.91,2.67-4.49,4.47-2.62,2.7,2.8,7.71,5.45,16.64,3.36,6-1.39,19.56-13.26,28-10.94,6.93,1.9,12.43,9.25,14.8,19.77,0,0,17,2.2,18.74,25.57,1.68,23-19.65,40.58-19.65,40.58Z" transform="translate(-18.12 -43)"/><path class="cls-7" d="M744.83,510.44c-4.51,3.19-6.47,9.5-4.38,14.1s7.44,5.75,11.95,2.56,6.48-9.5,4.38-14.1S749.34,507.25,744.83,510.44Z" transform="translate(-18.12 -43)"/><path class="cls-8" d="M745.56,524.25a1.36,1.36,0,0,1-.35-.48c-1.25-2.86-1.05-5.79.52-7.82A4.69,4.69,0,0,1,752,514.5a1.58,1.58,0,0,1,.51,1.89,1,1,0,0,1-1.52.63,2.8,2.8,0,0,0-3.58.89c-.88,1.13-.93,2.73-.16,4.51a1.6,1.6,0,0,1-.45,1.91A.94.94,0,0,1,745.56,524.25Z" transform="translate(-18.12 -43)"/><path class="cls-5" d="M698,522.82c-.44-.9.19-2,1-1.8a67.39,67.39,0,0,0,8.94,1.75A65.16,65.16,0,0,0,717,523c.84,0,1.3,1.21.74,2-1.73,2.42-5.2,6-10.35,5.43S699.34,525.58,698,522.82Z" transform="translate(-18.12 -43)"/><path class="cls-10" d="M676.35,556.25s.77-2.6-65.57-1.93L593,580.53c18.41,18.4,80.06,21.67,80.06,21.67Z" transform="translate(-18.12 -43)"/><polygon class="cls-1" points="682.33 511.12 703.25 508.69 723.5 515.72 700.69 544.98 682.33 511.12"/><path class="cls-7" d="M707.71,567.55c8.52,8.73,10.27,14.76,28.38,3.09l2.72-34.72L709.32,533Z" transform="translate(-18.12 -43)"/><path class="cls-1" d="M747,572.7h0l-6.2-3.06.83-10.92-17.2,17.22-4.86,1-4.64-2-14.47-20.76-.74,10.93-5.47,1.37h0l-19.73,4-2.35,136.52-7.78,46.45c26.18,10.86,55.46,13.57,84.24,8.62l-1-46.63,20.44-133.42Z" transform="translate(-18.12 -43)"/><polygon class="cls-10" points="697.66 547.7 685.3 651.94 692.14 663.79 701.07 655.25 704.1 548.56 697.66 547.7"/><polygon class="cls-10" points="696.92 535.39 701.44 533.91 706.04 536.41 704.1 548.77 697.62 548.04 696.92 535.39"/><path class="cls-10" d="M700.16,555l-3.09,125.92L683.7,762s-21.15-2.65-34.13-18.06l16.64-61,5.69-127.56Z" transform="translate(-18.12 -43)"/><polygon class="cls-12" points="682.04 511.99 678.96 636.22 663.57 541.02 682.04 511.99"/><path class="cls-10" d="M743.2,563.05,715.75,767.19s36.43,5.57,51.41-6.71L759,693.38,769,579.45Z" transform="translate(-18.12 -43)"/><polygon class="cls-12" points="725.08 520.05 709.03 639.7 737.76 549.42 725.08 520.05"/><path class="cls-7" d="M561.79,443c1.46,6.37,1.9,13.23,8.38,16.67,0,0-1,21.13-.25,38.47,0,0,15.68-22,15.68-22.06-.9-7-1.62-20.21-.76-27.71.22-1.95.53-3.89.77-5.84.68-4.74,1.8-9.59-.52-15.31-9-22.1-5.94-29.37-7.17-30.45-2-1.1-6.71,3.35-4,14.21,2.58,10.51,1.94,15.66,1.94,15.66s-6.76-1.59-9.16,1.36C565.56,429.34,560.08,435.55,561.79,443Z" transform="translate(-18.12 -43)"/><path class="cls-10" d="M565.43,472.79c9.14-3.8,14-5.51,21.05-5.51,16.81,62.43,28.78,85.94,23.79,103.87-4.16,14.94-17.34,13.74-23.79,2.55C578,558.93,570.46,502.82,565.43,472.79Z" transform="translate(-18.12 -43)"/><polygon class="cls-10" points="750.84 536.45 803.78 639.7 866.65 683.95 847.27 708.01 784.2 673.54 740.91 597.39 750.84 536.45"/><path class="cls-5" d="M719.56,576.91s-7.79,9.8-14.95,12.31l-8.46-27.91,4.3-7.19Z" transform="translate(-18.12 -43)"/><path class="cls-5" d="M719.56,576.91s4.44,9.5,13,15.43l12.32-25.51-3.21-8.11Z" transform="translate(-18.12 -43)"/><g id="с-3" data-name="с"><path id="с-4" data-name="с" class="cls-3" d="M777.18,870.83H315c-10.86,0-19.67-7.38-19.67-16.5h0c0-9.11,8.81-16.5,19.67-16.5H777.18c10.86,0,19.67,7.39,19.67,16.5h0C796.85,863.45,788,870.83,777.18,870.83Z" transform="translate(-18.12 -43)"/><path class="cls-3" d="M488.21,1103.35h0c-5,0-7.94-6.85-5.23-12L605,858.18l10.45,8.49-122,233.16A6,6,0,0,1,488.21,1103.35Z" transform="translate(-18.12 -43)"/><path class="cls-3" d="M604,1103.35h0c4.95,0,7.93-6.85,5.22-12l-122-233.15-10.44,8.49,122,233.16A6,6,0,0,0,604,1103.35Z" transform="translate(-18.12 -43)"/></g><g id="с-5" data-name="с"><path id="с-6" data-name="с" class="cls-3" d="M795.58,1099.66h0c-3.3,0-6-3.33-6-7.45v-132h11.94v132C801.55,1096.33,798.88,1099.66,795.58,1099.66Z" transform="translate(-18.12 -43)"/><path id="с-7" data-name="с" class="cls-3" d="M837.5,1099.66h0c-3.3,0-6-3.33-6-7.45v-132h12v132C843.48,1096.33,840.8,1099.66,837.5,1099.66Z" transform="translate(-18.12 -43)"/><path id="с-8" data-name="с" class="cls-3" d="M892.52,1099.66h0c-3.3,0-6-3.33-6-7.45v-132h12v132C898.49,1096.33,895.82,1099.66,892.52,1099.66Z" transform="translate(-18.12 -43)"/><path id="с-9" data-name="с" class="cls-3" d="M934.44,1099.66h0c-3.3,0-6-3.33-6-7.45v-132h11.94v132C940.41,1096.33,937.74,1099.66,934.44,1099.66Z" transform="translate(-18.12 -43)"/><path id="с-10" data-name="с" class="cls-3" d="M868.33,764.38v157c0,1.78-1.16,3.23-2.59,3.23H787.63c-7.88,0-14.27,8-14.27,17.79h0c0,9.83,6.39,17.79,14.27,17.79h95c7.88,0,14.27-8,14.27-17.79V764.38c0-9.83-6.39-17.79-14.27-17.79h0C874.72,746.59,868.33,754.55,868.33,764.38Z" transform="translate(-18.12 -43)"/><rect id="с-11" data-name="с" class="cls-3" x="864.48" y="703.59" width="61.75" height="180.96"/><path id="с-12" data-name="с" class="cls-3" d="M930.09,764.38v157c0,1.78-1.17,3.23-2.6,3.23H849.38c-7.88,0-14.26,8-14.26,17.79h0c0,9.83,6.38,17.79,14.26,17.79h95c7.88,0,14.27-8,14.27-17.79V764.38c0-9.83-6.39-17.79-14.27-17.79h0C936.47,746.59,930.09,754.55,930.09,764.38Z" transform="translate(-18.12 -43)"/></g><g id="с-13" data-name="с"><path id="с-14" data-name="с" class="cls-3" d="M290.73,1099.66h0c3.3,0,6-3.33,6-7.45v-132H284.75v132C284.75,1096.33,287.43,1099.66,290.73,1099.66Z" transform="translate(-18.12 -43)"/><path id="с-15" data-name="с" class="cls-3" d="M248.8,1099.66h0c3.3,0,6-3.33,6-7.45v-132H242.83v132C242.83,1096.33,245.5,1099.66,248.8,1099.66Z" transform="translate(-18.12 -43)"/><path id="с-16" data-name="с" class="cls-3" d="M193.79,1099.66h0c3.3,0,6-3.33,6-7.45v-132H187.81v132C187.81,1096.33,190.49,1099.66,193.79,1099.66Z" transform="translate(-18.12 -43)"/><path id="с-17" data-name="с" class="cls-3" d="M151.86,1099.66h0c3.3,0,6-3.33,6-7.45v-132h-12v132C145.89,1096.33,148.57,1099.66,151.86,1099.66Z" transform="translate(-18.12 -43)"/><path id="с-18" data-name="с" class="cls-3" d="M218,764.38v157c0,1.78,1.16,3.23,2.6,3.23h78.1c7.88,0,14.27,8,14.27,17.79h0c0,9.83-6.39,17.79-14.27,17.79h-95c-7.88,0-14.26-8-14.26-17.79V764.38c0-9.83,6.38-17.79,14.26-17.79h0C211.58,746.59,218,754.55,218,764.38Z" transform="translate(-18.12 -43)"/><rect id="с-19" data-name="с" class="cls-3" x="141.95" y="746.59" width="61.75" height="180.96" transform="translate(327.53 1631.14) rotate(180)"/><path id="с-20" data-name="с" class="cls-3" d="M156.22,764.38v157c0,1.78,1.16,3.23,2.59,3.23h78.11c7.88,0,14.27,8,14.27,17.79h0c0,9.83-6.39,17.79-14.27,17.79H142c-7.88,0-14.27-8-14.27-17.79V764.38c0-9.83,6.39-17.79,14.27-17.79h0C149.83,746.59,156.22,754.55,156.22,764.38Z" transform="translate(-18.12 -43)"/></g><path class="cls-10" d="M836.55,704.36c-13.18-5.93-33.53-18.89-20-42.56s13.19-13.35,8.32-42.11S836.39,568.3,852,574s19.63,21.5,38.8,17.51,35.11,18.36,27.89,37.74-10.3,28.71-3.55,39.44,37.15,22.29,24.47,48S921.15,740.84,925.55,754s-5.75,28.17-23.38,26.12-33.58-10.35-40-34.89S836.55,704.36,836.55,704.36Z" transform="translate(-18.12 -43)"/><path class="cls-7" d="M789.93,1078l-10.41,3.87-7.85-10c.38-.69,0-7.39-1.19-14.52l19.45-4C790.7,1060.7,789.93,1070.51,789.93,1078Z" transform="translate(-18.12 -43)"/><path class="cls-11" d="M779.59,1079.52c-2.47-8.1-7.77-9-7.77-9-10.28,17.11-35.55,6.61-34.71,29.75,38.42-.3,54.38,0,54.38,0,0-5.31-.81-17.93-1.69-22.86l-2,.44Z" transform="translate(-18.12 -43)"/><path class="cls-7" d="M720.67,1080.39l-10.84.93L703.6,1073c.48-.58,1.66-10.83,1.74-18.12l18.27,1C723.07,1063.35,722,1073.11,720.67,1080.39Z" transform="translate(-18.12 -43)"/><path class="cls-11" d="M711,1079.52c-2.48-8.1-7.77-9-7.77-9-10.29,17.11-35.55,6.61-34.71,29.75,38.41-.3,54.38,0,54.38,0,0-5.31-.81-17.93-1.7-22.86l-2,.44Z" transform="translate(-18.12 -43)"/><path class="cls-6" d="M830.32,854.37c-29.6,5-113,43.48-117.63,50.45-9.59,14.4-4.54,92.73-9.09,157.36l24.23,1.79c11.61-52.64,10.68-75.36,15.93-135.73,0,0,95.26,8.9,129.68-20.07C908.93,878.3,854.25,847.29,830.32,854.37Z" transform="translate(-18.12 -43)"/><path class="cls-8" d="M791.75,777.63c7,1.49,9.69,8.49,11.37,21.37-26.64,19.57-66.23,21-66.23,21l-12.62-7.78S756,797.93,791.75,777.63Z" transform="translate(-18.12 -43)"/><path class="cls-8" d="M864.61,740.8c-11.66,21.13-56.33,66.56-63.73,68l-9-31.26s43.62-58.85,51.56-69.25C857.2,690.22,883.71,706.36,864.61,740.8Z" transform="translate(-18.12 -43)"/><path class="cls-4" d="M815.48,737.42c9.36-12.56,21.53-40.91,37.38-38.9s17,23,12.22,34.28-21.27,39.11-21.27,39.11Z" transform="translate(-18.12 -43)"/><path class="cls-7" d="M818.35,790.57c6.72,2.88,10.56,29.27,8.67,31.29-28.8,14.22-88.72-1.16-88.72-1.16l-3.18-13.53S780.49,803.7,818.35,790.57Z" transform="translate(-18.12 -43)"/><path class="cls-11" d="M913.12,876.54c-6.59-42.36-9.43-57.37-12.16-77.31-6.77-49.27,13.11-83.9-21-107.51l-24.84,5c-20.08,26.35-32.45,50.26-33.51,66.78-1.46,21.3,15.5,32.87,15.5,32.87l-6.82,58s-1.61,4.73,26.4,11.33S913.12,876.54,913.12,876.54Z" transform="translate(-18.12 -43)"/><path class="cls-7" d="M892.7,746.81c-11.67,21.37-61.5,75.69-69,76.17l-5.37-32.41s45.27-66.14,53.21-76.66C885.28,695.65,911.79,712,892.7,746.81Z" transform="translate(-18.12 -43)"/><path class="cls-4" d="M845.06,747c8.7-15.78,26.25-44.91,42.1-42.89s17,23,12.22,34.27-21.27,39.12-21.27,39.12Z" transform="translate(-18.12 -43)"/><path class="cls-7" d="M735.12,807.17C726,804.36,706,796,698,822.17c2,4.8,9.39-7,12.56-8.15,5-1.74,9.34,1.55,13.15,6.09,5.45,6.5,14.58.59,14.58.59Z" transform="translate(-18.12 -43)"/><path class="cls-11" d="M728,837.55H641.92v-14.4h97.62C739.54,831.1,734.37,837.55,728,837.55Z" transform="translate(-18.12 -43)"/><path class="cls-11" d="M597.67,747.05l44.25,90.5,10.23-6.7L602.52,727.6h0C596.87,731.3,594.7,740,597.67,747.05Z" transform="translate(-18.12 -43)"/><path class="cls-7" d="M891.36,651.36c-4.18,21.79-18.71,36.13-32.43,32s-21.47-25.08-17.28-46.87,18.7-36.13,32.43-32S895.55,629.57,891.36,651.36Z" transform="translate(-18.12 -43)"/><path class="cls-7" d="M884.71,662.84,861.9,680.47s-2,12.56-3,16.64c-2.08,8.42,5.91,12.1,12.66,6.86A24.58,24.58,0,0,0,880,691.72Z" transform="translate(-18.12 -43)"/><path class="cls-10" d="M840.08,628.2c6.48.7,20.53-.71,25.65-8.28,3.65,15.37,19.17,30,32,36.87.52-15.77.42-44.79-22.26-56.85C857.66,590.47,840.08,628.2,840.08,628.2Z" transform="translate(-18.12 -43)"/><path d="M848.08,642.24a2.25,2.25,0,0,1-3.29,1.38,3.43,3.43,0,0,1-1.1-4.1,2.25,2.25,0,0,1,3.29-1.38A3.43,3.43,0,0,1,848.08,642.24Z" transform="translate(-18.12 -43)"/><path d="M867.36,648.17c-.65,1.64-2.25,2.31-3.56,1.49a3.72,3.72,0,0,1-1.19-4.44c.65-1.64,2.25-2.3,3.56-1.49A3.72,3.72,0,0,1,867.36,648.17Z" transform="translate(-18.12 -43)"/><path class="cls-10" d="M870.3,645.43a1,1,0,0,1-.42-.55,7,7,0,0,0-5-4.28,1.15,1.15,0,0,1-.78-1.31,1,1,0,0,1,1-1,8.83,8.83,0,0,1,6.38,5.6,1.27,1.27,0,0,1-.45,1.53A.77.77,0,0,1,870.3,645.43Z" transform="translate(-18.12 -43)"/><path class="cls-10" d="M842.73,637.81a1.27,1.27,0,0,1-.25-.22,1.37,1.37,0,0,1,0-1.63,5.55,5.55,0,0,1,6.44-2,1.23,1.23,0,0,1,.57,1.46.9.9,0,0,1-1.17.72,4,4,0,0,0-4.54,1.43A.8.8,0,0,1,842.73,637.81Z" transform="translate(-18.12 -43)"/><path class="cls-8" d="M849.66,648.9a28.29,28.29,0,0,1-3.81,4.52,1.37,1.37,0,0,0-.32,1.61c1,2.3,4.07,4.19,5.93,5.18.27.14.49-.3.27-.55a15.37,15.37,0,0,1-3-4.39,1.75,1.75,0,0,1,0-1.31c.39-1,1.15-2.88,1.67-4.48C850.56,648.93,850,648.47,849.66,648.9Z" transform="translate(-18.12 -43)"/><path class="cls-7" d="M884.75,651.5c-3.33,3.23-4.31,8.62-2.19,12s6.55,3.54,9.89.3,4.31-8.61,2.19-12S888.09,648.26,884.75,651.5Z" transform="translate(-18.12 -43)"/><path class="cls-8" d="M886.65,662.53a1.05,1.05,0,0,1-.32-.34,6.23,6.23,0,0,1-.32-6.38,4,4,0,0,1,4.87-2.09,1.23,1.23,0,0,1,.59,1.46.9.9,0,0,1-1.17.73,2.36,2.36,0,0,0-2.79,1.24,3.51,3.51,0,0,0,.3,3.66,1.35,1.35,0,0,1-.19,1.61A.78.78,0,0,1,886.65,662.53Z" transform="translate(-18.12 -43)"/><path class="cls-13" d="M863.44,861.1c-29.6,5-113.11,38.71-117.75,45.68-9.6,14.39,11.77,76,18.6,155.4h28.57c-.3-56.55,3.33-108.57-10.63-127,0,0,80-6.66,119.94-6.66C922.51,928.52,933.77,842.83,863.44,861.1Z" transform="translate(-18.12 -43)"/><path class="cls-5" d="M848.41,667.24c-.39-.67,0-1.6.69-1.5a42.9,42.9,0,0,0,14.18,0c.66-.1,1.08.83.69,1.5-1.22,2-3.73,5.13-7.79,5.13S849.63,669.28,848.41,667.24Z" transform="translate(-18.12 -43)"/><path class="cls-7" d="M280,800.16c-5.65,4.69-4.08,30.25-2,31.55,29.39,4.47,79-25.88,79-25.88l1.95-13.58S317.61,800.91,280,800.16Z" transform="translate(-18.12 -43)"/><path class="cls-7" d="M215.47,755.86C226,776.8,272,831,279.1,831.77l6.08-30.71s-41.28-65.24-48.56-75.66C224.06,707.33,198.26,721.7,215.47,755.86Z" transform="translate(-18.12 -43)"/><path class="cls-10" d="M240.6,643.93c1.26-21.44-3.71-40.39-17.42-50-13.91-9.78-31.32-.19-31.32-.19h0s-14.75-6.53-28.11,11.81S160.5,640,155,653.38c-3.24,7.93-19.7,9.56-15.45,35.37,1.23,7.45,8.41,12.46,14.49,13,10.69.87,20.64-4.28,25,.87,14.28,17,45.91,10.83,50.34-4.69,1.37-4.81,29.82,4.5,27-28.29C254.94,653,239.47,663.1,240.6,643.93Z" transform="translate(-18.12 -43)"/><polygon class="cls-7" points="196.41 670.26 173.81 665.06 165.34 679.11 183.35 725.13 209.83 697.11 196.41 670.26"/><path class="cls-11" d="M243.81,824.22c-.38-8.76,11-44.72,5-62.81-4.35-14.56-11.62-39-20.52-43.08-4.2-1.93-8.52-3.27-13.75-5.07,0,0,2.95,18.35-3.2,19-11.85,1.19-19.4-24.16-19.4-24.16-6.38-.76-35.67,11.24-35.66,14.24.07,23.48,15.38,57.75,20.38,83.14,2,27.42-5.7,60.24-5.73,63.36,0,0,47.12,16.51,75.05-2.66C246.55,863.47,244.34,836.31,243.81,824.22Z" transform="translate(-18.12 -43)"/><path class="cls-11" d="M178,840.62s-10.4,32.72-12.94,53.31,11.78,33.81,11.78,33.81h119S308.64,902,305,884.18s-12.12-20.62-12.12-20.62Z" transform="translate(-18.12 -43)"/><path class="cls-8" d="M297.49,862.65c-15.2-2.68-59.31,18.68-78.12,65.09H272Z" transform="translate(-18.12 -43)"/><path class="cls-8" d="M280.82,879.73a54.21,54.21,0,0,0,5.32-9.43c4.43-9.75,15.13-11.39,21.16-3.1,21.94,30.16,68.72,98.91,79.14,107.47,2.95,2.41,20.14,14.75,36.48,12.31,0,0,8.07,3.83,2.7,11.82-2.77,4.11-44.3,8.35-44.3,8.35L378.08,992c-24.17-22.31-54.27-20.7-79.78-61.48C284.24,908,280.82,879.73,280.82,879.73Z" transform="translate(-18.12 -43)"/><path class="cls-11" d="M389.73,1015.92l16.71,13.53,2.3-3.42-13.55-15.76c7.7-7.57,25.53-1.25,25.53-1.25,5.84-4.7,17.23-20,18.4-28.14-3.74-5.81-16.19,6.14-16.19,6.14.45,2.59-3.48,11.56-6.61,13.1-13.61,3.66-27.17-1.16-38.24-8.17C378.08,992,368.84,1009.42,389.73,1015.92Z" transform="translate(-18.12 -43)"/><path class="cls-7" d="M280.58,883.82c-3.05,1-5.32,4.2-5.76,8.09-1.19,10.53-7.33,31.85,1,54.17,20.42,54.8,32.47,90.91,34.61,105.05-5.33,12.45,15.94,46.46,16.25,48.69l15.31-6s-8.78-16.29-12-22.66c-7.53-15.19-8.76-33.83-10-48.27-5.23-61.67,3.76-100.61-32-136.78C285.89,884,283.21,882.94,280.58,883.82Z" transform="translate(-18.12 -43)"/><path class="cls-11" d="M302.79,1077.21,304.3,1102l3.57.21,1.83-23c9.5,3,16.29,24.56,16.29,24.56,6.54,2.94,23.18,5,29.1,1.18,1.44-7.23-13.74-12.33-13.74-12.33-1.37,2-9.48,3.56-12.36,1.38-10.58-11.27-16.33-27.63-18.58-42.85C310.41,1051.13,294.27,1052.55,302.79,1077.21Z" transform="translate(-18.12 -43)"/><path class="cls-7" d="M208.82,690.26l-18.35-3.43,1.46,21.23s3.52,9.62,7.59,10.27l15-5.07Z" transform="translate(-18.12 -43)"/><path class="cls-7" d="M173.5,659.56c4.74,24.66,21.17,40.89,36.7,36.25s24.29-28.38,19.55-53-21.16-40.89-36.7-36.25S168.76,634.91,173.5,659.56Z" transform="translate(-18.12 -43)"/><path d="M222.47,649.25c.69,1.71,2.35,2.41,3.73,1.55a3.9,3.9,0,0,0,1.25-4.64c-.69-1.71-2.36-2.41-3.73-1.56A3.92,3.92,0,0,0,222.47,649.25Z" transform="translate(-18.12 -43)"/><path d="M200.66,656c.74,1.85,2.54,2.61,4,1.68a4.22,4.22,0,0,0,1.35-5c-.74-1.86-2.55-2.61-4-1.69A4.21,4.21,0,0,0,200.66,656Z" transform="translate(-18.12 -43)"/><path class="cls-10" d="M197.33,652.85a1.15,1.15,0,0,0,.48-.61,8,8,0,0,1,5.62-4.86,1.29,1.29,0,0,0,.89-1.47c-.09-.71-.61-1.21-1.18-1.11a10,10,0,0,0-7.23,6.34,1.46,1.46,0,0,0,.51,1.73A.87.87,0,0,0,197.33,652.85Z" transform="translate(-18.12 -43)"/><path class="cls-10" d="M228.53,644.23a1.1,1.1,0,0,0,.28-.25,1.55,1.55,0,0,0,0-1.85,6.26,6.26,0,0,0-7.29-2.22,1.39,1.39,0,0,0-.64,1.65,1,1,0,0,0,1.32.81,4.5,4.5,0,0,1,5.14,1.62A.9.9,0,0,0,228.53,644.23Z" transform="translate(-18.12 -43)"/><path class="cls-8" d="M220.69,656.78c1.52,2,2.86,4,4.31,5.11a1.6,1.6,0,0,1,.37,1.83c-1.18,2.6-4.61,4.74-6.72,5.85-.3.17-.56-.34-.3-.61a17.7,17.7,0,0,0,3.42-5,2,2,0,0,0,0-1.48c-.43-1.08-1.3-3.26-1.89-5.08C219.67,656.81,220.31,656.3,220.69,656.78Z" transform="translate(-18.12 -43)"/><path class="cls-7" d="M181,659.72c3.78,3.66,4.89,9.75,2.49,13.6s-7.41,4-11.19.35-4.88-9.75-2.48-13.61S177.2,656.06,181,659.72Z" transform="translate(-18.12 -43)"/><path class="cls-8" d="M178.83,672.2a1,1,0,0,0,.36-.38,7.06,7.06,0,0,0,.37-7.22c-1.25-2.18-3.57-3.17-5.52-2.37a1.41,1.41,0,0,0-.67,1.65,1,1,0,0,0,1.32.83,2.7,2.7,0,0,1,3.17,1.41,4,4,0,0,1-.34,4.13,1.54,1.54,0,0,0,.21,1.83A.87.87,0,0,0,178.83,672.2Z" transform="translate(-18.12 -43)"/><path class="cls-5" d="M203.52,676.44c-.44-.74,0-1.76.76-1.66a47,47,0,0,0,15.7,0c.73-.1,1.2.92.76,1.66-1.34,2.26-4.12,5.7-8.61,5.7S204.86,678.7,203.52,676.44Z" transform="translate(-18.12 -43)"/><path class="cls-10" d="M173.12,657.38c18.54-3.09,44.48-26.64,46.61-38.73-3.59-14.52-22.7-21.81-33.49-15.09S165.26,639.11,173.12,657.38Z" transform="translate(-18.12 -43)"/><path class="cls-5" d="M346.57,832.18h0c-2.47-1-3.82-4.31-3-7.39l28.62-109.3c.81-3.08,3.46-4.76,5.93-3.75h0c2.47,1,3.81,4.31,3,7.39L352.5,828.43C351.69,831.5,349,833.18,346.57,832.18Z" transform="translate(-18.12 -43)"/><path class="cls-7" d="M361.77,793l5.83-22.27s5.06,12.81,0,25-9.86,12.7-9.86,12.7Z" transform="translate(-18.12 -43)"/><path class="cls-7" d="M353.44,787.05C352,782.73,348.5,771.91,352,772s4,5.3,4,5.3Z" transform="translate(-18.12 -43)"/><path class="cls-7" d="M66.74,722a19.31,19.31,0,0,0,2.71-20.05c4.32-1.15,27.1,41.88,36.93,69.22,17.14-21.53,47.33-50.61,55.5-52.3,0,0,11-3.7,15,12.91,3.54,14.82-10.24,25.32-10.24,25.32S107.67,808.94,99,804.33C85.38,797.15,73.11,735.4,66.74,722Z" transform="translate(-18.12 -43)"/><path class="cls-7" d="M54.43,720.74c4.81.36,10.76-2.6,12.62,2.78l9.49-5.77.57-7.14c-8.15-16.29-28-20.92-30-21.13-5.11-.56-7.48-1.22-7.88-.37s-1.66,6.53,5.76,7.64c9.32,1.4,3.13,10.68-15.76,1.84-4.73-2.21-13.63.66-10.41,5C22.36,708.31,32.55,719.07,54.43,720.74Z" transform="translate(-18.12 -43)"/><rect class="cls-11" x="454.05" y="615.44" width="15.6" height="8.96"/><polygon class="cls-11" points="486.81 763.05 440.13 763.05 437.67 789.8 490.09 789.8 486.81 763.05"/><path class="cls-11" d="M513.13,838.06a6.64,6.64,0,0,0,.84-3.7L507.82,828H456.17L450,834.36a5.55,5.55,0,0,0,1,3.7Z" transform="translate(-18.12 -43)"/><path class="cls-11" d="M450.73,834.76l-.7.68a5.56,5.56,0,0,0,1,3.71h62.12a6.67,6.67,0,0,0,.84-3.71l-.59-.68Z" transform="translate(-18.12 -43)"/><path class="cls-11" d="M569,808.56a4.48,4.48,0,0,1-4.46,4.5H399.46a4.48,4.48,0,0,1-4.46-4.5V671.9a4.48,4.48,0,0,1,4.46-4.5H564.54a4.48,4.48,0,0,1,4.46,4.5Z" transform="translate(-18.12 -43)"/><path class="cls-11" d="M487.61,798.2a3.06,3.06,0,0,1-3-3.81,4.84,4.84,0,0,0-1.62-.28,5.1,5.1,0,1,0,4.93,4A3.39,3.39,0,0,1,487.61,798.2Z" transform="translate(-18.12 -43)"/><path class="cls-11" d="M490.86,654.19A11.08,11.08,0,1,1,479.78,643,11.14,11.14,0,0,1,490.86,654.19Z" transform="translate(-18.12 -43)"/><path class="cls-11" d="M487.77,653a9.13,9.13,0,1,1-9.13-9.22A9.17,9.17,0,0,1,487.77,653Z" transform="translate(-18.12 -43)"/><path class="cls-11" d="M482,654.19a4.74,4.74,0,1,1-4.74-4.78A4.76,4.76,0,0,1,482,654.19Z" transform="translate(-18.12 -43)"/><path class="cls-14" d="M398.78,784a4.28,4.28,0,0,0,4.27,4.29H561.13A4.28,4.28,0,0,0,565.4,784V675.05a4.28,4.28,0,0,0-4.27-4.29H403.05a4.28,4.28,0,0,0-4.27,4.29Z" transform="translate(-18.12 -43)"/><rect class="cls-15" x="384.99" y="632.43" width="157.96" height="107.64"/><rect class="cls-15" x="518.28" y="632.43" width="24.67" height="107.64"/><path class="cls-16" d="M536.4,684.27v89.29a2.35,2.35,0,0,1-2.37,2.32H409.84a2.35,2.35,0,0,1-2.38-2.32V684.27a2.35,2.35,0,0,1,2.38-2.32H534A2.35,2.35,0,0,1,536.4,684.27Z" transform="translate(-18.12 -43)"/><path class="cls-16" d="M555.52,695.4a6.49,6.49,0,1,1-6.48-6.55A6.51,6.51,0,0,1,555.52,695.4Z" transform="translate(-18.12 -43)"/><path class="cls-16" d="M559.27,710.2a3.08,3.08,0,1,1-3.08-3.1A3.09,3.09,0,0,1,559.27,710.2Z" transform="translate(-18.12 -43)"/><path class="cls-16" d="M540.17,710.2c0,.94.54,1.7,1.21,1.7h7.82c.66,0,1.2-.76,1.2-1.7h0c0-.93-.54-1.69-1.2-1.69h-7.82c-.67,0-1.21.76-1.21,1.69Z" transform="translate(-18.12 -43)"/><path class="cls-16" d="M559.27,720a3.08,3.08,0,1,1-3.08-3.11A3.09,3.09,0,0,1,559.27,720Z" transform="translate(-18.12 -43)"/><path class="cls-16" d="M540.17,720c0,.93.54,1.69,1.21,1.69h7.82c.66,0,1.2-.76,1.2-1.69h0c0-.94-.54-1.7-1.2-1.7h-7.82c-.67,0-1.21.76-1.21,1.7Z" transform="translate(-18.12 -43)"/><path class="cls-16" d="M559.27,729.69a3.08,3.08,0,1,1-3.08-3.11A3.09,3.09,0,0,1,559.27,729.69Z" transform="translate(-18.12 -43)"/><path class="cls-16" d="M540.17,729.87a1.38,1.38,0,0,0,1.21,1.51h7.82a1.38,1.38,0,0,0,1.2-1.51h0a1.39,1.39,0,0,0-1.2-1.52h-7.82a1.39,1.39,0,0,0-1.21,1.52Z" transform="translate(-18.12 -43)"/><path class="cls-16" d="M559.27,739.43a3.08,3.08,0,1,1-3.08-3.1A3.09,3.09,0,0,1,559.27,739.43Z" transform="translate(-18.12 -43)"/><path class="cls-16" d="M540.17,739.43c0,.94.54,1.7,1.21,1.7h7.82c.66,0,1.2-.76,1.2-1.7h0c0-.93-.54-1.69-1.2-1.69h-7.82c-.67,0-1.21.76-1.21,1.69Z" transform="translate(-18.12 -43)"/><path class="cls-16" d="M559.27,749.18a3.08,3.08,0,1,1-3.08-3.11A3.1,3.1,0,0,1,559.27,749.18Z" transform="translate(-18.12 -43)"/><path class="cls-16" d="M540.17,749.18c0,.93.54,1.69,1.21,1.69h7.82c.66,0,1.2-.76,1.2-1.69h0c0-.94-.54-1.7-1.2-1.7h-7.82c-.67,0-1.21.76-1.21,1.7Z" transform="translate(-18.12 -43)"/><path class="cls-16" d="M559.27,758.5a3.08,3.08,0,1,1-3.08-3.11A3.1,3.1,0,0,1,559.27,758.5Z" transform="translate(-18.12 -43)"/><path class="cls-16" d="M540.17,758.5c0,.93.54,1.69,1.21,1.69h7.82c.66,0,1.2-.76,1.2-1.69h0c0-.94-.54-1.7-1.2-1.7h-7.82c-.67,0-1.21.76-1.21,1.7Z" transform="translate(-18.12 -43)"/><path class="cls-12" d="M551,698.54c.62.27.92,1.37.92,2l0,.72a6.37,6.37,0,0,1-5.62.13l0-1.32a1.87,1.87,0,0,1,.84-1.53,4.22,4.22,0,0,1,1.24-.42s0,0,0,0l.07-.72a3,3,0,0,1-2-2.41l-.06-1.43a2.61,2.61,0,0,1,2.68-2.57,2.67,2.67,0,0,1,2.69,2.63l-.15,1.48a2.9,2.9,0,0,1-1.88,2.42l.05.65A4.28,4.28,0,0,1,551,698.54Z" transform="translate(-18.12 -43)"/><path class="cls-17" d="M536.4,759.09v16.79H432.93A53.78,53.78,0,0,1,439.48,753c6.59-12,15.41-18.16,14.08-36-.5-6.7-8.13-14.92,1.89-23.89,9.17-8.21,15.11-3.91,15.11-3.91a20.23,20.23,0,0,1,14.76-4.62c12.51,1.09,19.38,9,23.52,21.77,4,12.33-8,18.72,9,27.56C525.16,737.77,533.27,747.41,536.4,759.09Z" transform="translate(-18.12 -43)"/><path class="cls-7" d="M416.36,726.17c.81,3.8,4.18,8.8,4.18,8.8l5.93-1.59.34-2.35s3-2.2,2.39-7.14-2.41-5.66-2.41-5.66-1,.7.1,4.22c-.54,1.79-1.08,2.14-1.08,2.14l-.63-2.56s-.46-2.52-.71-5.2c.53-2.1,1.17-5.09-.28-5.39a18.25,18.25,0,0,0-1.38,4.67c-.12,1.15-.07,3-.06,4.61a34,34,0,0,1-.72-4.44c.94-3.22,1.3-6.41-.11-6a36.88,36.88,0,0,0-1.61,5.82c-.06,2.28-.05,4.22-.06,4.63a10.07,10.07,0,0,1-.82-4.07,18.11,18.11,0,0,0,.34-4.5c-.22-.9-.74-1.65-1.17-.24a20.49,20.49,0,0,0-1,4.71,18.78,18.78,0,0,0,.53,4.92c-2.24-4-.68-6.57-2.13-7.12a7.63,7.63,0,0,0-.79,4.34A62.24,62.24,0,0,0,416.36,726.17Z" transform="translate(-18.12 -43)"/><path class="cls-8" d="M425.53,724.76s-4-.14-2.88,5.41C421.69,728.8,420.19,723.77,425.53,724.76Z" transform="translate(-18.12 -43)"/><path class="cls-1" d="M536.4,773.63v2.25H432.93v0l0,0c-16.16-10-13.42-33.55-13.42-40.91l.17-.09a18.46,18.46,0,0,1,7.3-2h0l.26,0A164.66,164.66,0,0,1,439.48,753c.95,1.83,1.48,2.93,1.48,2.93s19.62-13.34,31.08-16.88c7.93-2.44,23.18.27,23.18.27s11.69,3.32,17.48,8C521.16,754.26,528.55,762.79,536.4,773.63Z" transform="translate(-18.12 -43)"/><path class="cls-7" d="M490.53,721l.36,18.71a7.71,7.71,0,0,1-7.25,3.9c-3.13,0-5.25-4.32-5.25-4.32l-.4-10Z" transform="translate(-18.12 -43)"/><path class="cls-7" d="M490.18,710.93c2.72,12.16-2.67,21.12-12,23.54-6.85,1.77-16.24-5.58-18.57-16.17-.19-.87-.05-2.89-.2-3.72-1.63-9.39-.14-16.72,10.79-18.71C482,693.72,487.82,700.34,490.18,710.93Z" transform="translate(-18.12 -43)"/><path class="cls-15" d="M478.32,724.44l-9.84,1.79a.56.56,0,0,0-.17,1c1.57.83,3.49,2.05,5.59,1.63a9,9,0,0,0,5-3.64A.56.56,0,0,0,478.32,724.44Z" transform="translate(-18.12 -43)"/><path class="cls-7" d="M488.24,712c-.24,3.07,1,5.67,2.82,5.8s3.45-2.25,3.69-5.33-1-5.67-2.82-5.8S488.48,708.93,488.24,712Z" transform="translate(-18.12 -43)"/><path class="cls-8" d="M491.06,714.6a.38.38,0,0,1-.39-.35,10.24,10.24,0,0,1-.4-1.79,2.47,2.47,0,0,1,2.62-2.21.38.38,0,1,1,.17.74,2.22,2.22,0,0,0-1.58,2.07,5.48,5.48,0,0,0,0,1.13.38.38,0,0,1-.36.41Z" transform="translate(-18.12 -43)"/><path class="cls-18" d="M458.26,761.62c-.2,1-2.91,8.33-3.64,12.22h0a11.81,11.81,0,0,0-.18,1.23c0,.24,0,.52,0,.81h-3.68C452.16,770.72,454.77,764.36,458.26,761.62Z" transform="translate(-18.12 -43)"/><path class="cls-17" d="M480.76,708l-4.39-.21a1,1,0,0,1-1-1h0a1,1,0,0,1,1.07-.94l4.39.21a1,1,0,0,1,1,1h0A1,1,0,0,1,480.76,708Z" transform="translate(-18.12 -43)"/><path class="cls-17" d="M464.32,710.19l-3.9,1.17a1,1,0,0,1-1.24-.64v-.05a1,1,0,0,1,.65-1.2l3.9-1.16a1,1,0,0,1,1.23.63l0,0A1,1,0,0,1,464.32,710.19Z" transform="translate(-18.12 -43)"/><path class="cls-19" d="M468.4,719.46c.52,1.22,2.91,2.36,5.32,2a.1.1,0,0,1,.07.19c-2.45,1.51-4.08,1.11-5.17.08a2.27,2.27,0,0,1-.54-2.2A.18.18,0,0,1,468.4,719.46Z" transform="translate(-18.12 -43)"/><path d="M476.62,712.49a2,2,0,0,0,1.84,2.07,2,2,0,0,0,2.14-1.78,2,2,0,0,0-1.84-2.07A2,2,0,0,0,476.62,712.49Z" transform="translate(-18.12 -43)"/><path d="M478.76,710.71c-1.79-.07-3,.82-4.07-.43a2.69,2.69,0,0,0,2.55,1.73Z" transform="translate(-18.12 -43)"/><path d="M461.82,714.77a1.89,1.89,0,0,0,1.77,2,1.91,1.91,0,0,0,2.07-1.72,1.93,1.93,0,0,0-3.84-.28Z" transform="translate(-18.12 -43)"/><path d="M463.74,713.05c-1.8-.07-3,.82-4.07-.44a2.67,2.67,0,0,0,2.54,1.73Z" transform="translate(-18.12 -43)"/><path class="cls-17" d="M463,697.39c-2.06,2,8.17,9,27,7.43C495.54,704.36,473.88,687,463,697.39Z" transform="translate(-18.12 -43)"/><path class="cls-3" d="M530.36,389.88a40.76,40.76,0,0,1-2.2,13.23c-7.21,21.15-31.27,36.69-59.84,36.69s-52.63-15.54-59.84-36.69a40.76,40.76,0,0,1-2.2-13.23Z" transform="translate(-18.12 -43)"/><path class="cls-20" d="M530.36,389.88a40.76,40.76,0,0,1-2.2,13.23H408.48a40.76,40.76,0,0,1-2.2-13.23Z" transform="translate(-18.12 -43)"/><path class="cls-11" d="M598.25,175.86c0-73.31-58.07-132.76-129.74-132.86-70.69-.1-128.83,58.15-130.1,130.42a134.24,134.24,0,0,0,27.22,83.83A168.69,168.69,0,0,1,400.1,359.18v.66H536.54v-.66A169.17,169.17,0,0,1,571.1,257.13,134.18,134.18,0,0,0,598.25,175.86Z" transform="translate(-18.12 -43)"/><path class="cls-15" d="M488,344.8a3.27,3.27,0,0,1-1.1-.19,3.42,3.42,0,0,1-2-4.33c.15-.45,15.47-45.58,26.61-91.55,19.73-81.47,9.57-94.71,4.29-96.62-15.53-5.62-27.89,2.69-35.53,10.66a67.25,67.25,0,0,0-6.42,7.87,130.52,130.52,0,0,1,8.81,19.19c6.88,18.8,8.71,36.35,4.89,47-2.94,8.19-9.2,12.34-17.62,11.69-7.95-.61-13.76-5.32-16.81-13.6-3.5-9.51-3.05-23.48,1.24-38.35A103.45,103.45,0,0,1,466,170.34c-4.58-7.42-9.89-13.79-15.64-18.08-8.55-6.38-16.58-6.65-23.87-.83-15.05,12-15.62,48.2-1.67,104.61a758.6,758.6,0,0,0,26.71,84.09,3.41,3.41,0,0,1-1.84,4.42,3.3,3.3,0,0,1-4.32-1.88,765.18,765.18,0,0,1-27-84.91c-14.88-60.09-13.53-97.67,4-111.68,9.63-7.7,20.95-7.45,31.87.69,5.48,4.08,10.89,10.19,15.79,17.67a71,71,0,0,1,5.45-6.42c12.71-13.26,27.8-17.63,42.49-12.31,9.15,3.31,12.9,15.9,11.47,38.48-1,16.66-4.94,38.94-11.55,66.22-11.2,46.26-26.61,91.66-26.77,92.11A3.32,3.32,0,0,1,488,344.8ZM469.74,177a97.75,97.75,0,0,0-9.07,21.46c-3.83,13.28-4.35,26-1.4,34,2.14,5.8,5.77,8.81,11.1,9.23,5.49.42,8.95-1.89,10.89-7.26C485.66,222.21,480.32,197.22,469.74,177Z" transform="translate(-18.12 -43)"/><rect class="cls-3" x="369.01" y="300.11" width="162.38" height="51.12" rx="25.56"/><path class="cls-11" d="M689.05,181.32H646.57a11.07,11.07,0,0,1-11-11.2h0a11.07,11.07,0,0,1,11-11.19h42.48a11.07,11.07,0,0,1,11,11.19h0A11.07,11.07,0,0,1,689.05,181.32Z" transform="translate(-18.12 -43)"/><path class="cls-11" d="M290.07,181.32H247.59a11.07,11.07,0,0,1-11-11.2h0a11.07,11.07,0,0,1,11-11.19h42.48A11.07,11.07,0,0,1,301,170.12h0A11.07,11.07,0,0,1,290.07,181.32Z" transform="translate(-18.12 -43)"/><path class="cls-11" d="M317.07,89.41l-33.81-26.3a11.37,11.37,0,0,1-2.08-15.69h0a10.78,10.78,0,0,1,15.34-2.13l33.81,26.3a11.37,11.37,0,0,1,2.08,15.69h0A10.79,10.79,0,0,1,317.07,89.41Z" transform="translate(-18.12 -43)"/><path class="cls-11" d="M617.4,89.41l33.81-26.3a11.37,11.37,0,0,0,2.09-15.69h0A10.79,10.79,0,0,0,638,45.29l-33.81,26.3a11.37,11.37,0,0,0-2.08,15.69h0A10.79,10.79,0,0,0,617.4,89.41Z" transform="translate(-18.12 -43)"/><path class="cls-11" d="M317.07,264.72,283.26,291a11.37,11.37,0,0,0-2.08,15.69h0a10.79,10.79,0,0,0,15.34,2.13l33.81-26.3a11.37,11.37,0,0,0,2.08-15.69h0A10.78,10.78,0,0,0,317.07,264.72Z" transform="translate(-18.12 -43)"/><path class="cls-11" d="M617.4,264.72,651.21,291a11.37,11.37,0,0,1,2.09,15.69h0A10.8,10.8,0,0,1,638,308.84l-33.81-26.3a11.37,11.37,0,0,1-2.08-15.69h0A10.78,10.78,0,0,1,617.4,264.72Z" transform="translate(-18.12 -43)"/></svg>