<?xml version="1.0"?>
<svg xmlns="http://www.w3.org/2000/svg" width="512" height="512" viewBox="0 0 512 512"><g><path d="M504,340a20.02,20.02,0,0,0-20-20H432V304a8,8,0,0,0-8-8h-8V256a8,8,0,0,0-8-8H264V168h72a48.006,48.006,0,0,0,6.48-95.57A79.942,79.942,0,0,0,264,8a80.519,80.519,0,0,0-65.25,33.71A64.012,64.012,0,1,0,184,168h64v80H104a8,8,0,0,0-8,8v40H88a8,8,0,0,0-8,8v16H28A20.02,20.02,0,0,0,8,340v24a19.907,19.907,0,0,0,4.04,12A19.907,19.907,0,0,0,8,388v24a19.907,19.907,0,0,0,4.04,12A19.907,19.907,0,0,0,8,436v24a20.02,20.02,0,0,0,20,20H80v16a8,8,0,0,0,8,8h32a8,8,0,0,0,8-8V480h52a20.02,20.02,0,0,0,20-20V436a19.907,19.907,0,0,0-4.04-12A19.907,19.907,0,0,0,200,412V388a19.907,19.907,0,0,0-4.04-12A19.907,19.907,0,0,0,200,364V340a20.02,20.02,0,0,0-20-20H128V304a8,8,0,0,0-8-8h-8V264H400v32h-8a8,8,0,0,0-8,8v16H332a20.02,20.02,0,0,0-20,20v24a19.907,19.907,0,0,0,4.04,12A19.907,19.907,0,0,0,312,388v24a19.907,19.907,0,0,0,4.04,12A19.907,19.907,0,0,0,312,436v24a20.02,20.02,0,0,0,20,20h52v16a8,8,0,0,0,8,8h32a8,8,0,0,0,8-8V480h52a20.02,20.02,0,0,0,20-20V436a19.907,19.907,0,0,0-4.04-12A19.907,19.907,0,0,0,504,412V388a19.907,19.907,0,0,0-4.04-12A19.907,19.907,0,0,0,504,364ZM96,312h16v8H96Zm16,176H96v-8h16Zm72-28a4,4,0,0,1-4,4H28a4,4,0,0,1-4-4V436a4,4,0,0,1,4-4H180a4,4,0,0,1,4,4Zm0-48a4,4,0,0,1-4,4H28a4,4,0,0,1-4-4V388a4,4,0,0,1,4-4H180a4,4,0,0,1,4,4Zm-4-76a4,4,0,0,1,4,4v24a4,4,0,0,1-4,4H28a4,4,0,0,1-4-4V340a4,4,0,0,1,4-4Zm4-184a48,48,0,1,1,15.61-93.4,8.013,8.013,0,0,0,9.46-3.46A63.994,63.994,0,0,1,327.61,80.87,7.994,7.994,0,0,0,335.56,88H336a32,32,0,0,1,0,64ZM400,312h16v8H400Zm16,176H400v-8h16Zm72-28a4,4,0,0,1-4,4H332a4,4,0,0,1-4-4V436a4,4,0,0,1,4-4H484a4,4,0,0,1,4,4Zm0-48a4,4,0,0,1-4,4H332a4,4,0,0,1-4-4V388a4,4,0,0,1,4-4H484a4,4,0,0,1,4,4Zm0-48a4,4,0,0,1-4,4H332a4,4,0,0,1-4-4V340a4,4,0,0,1,4-4H484a4,4,0,0,1,4,4Z"/><circle cx="344" cy="352" r="8"/><circle cx="368" cy="352" r="8"/><path d="M432,360h40a8,8,0,0,0,0-16H432a8,8,0,0,0,0,16Z"/><circle cx="344" cy="400" r="8"/><circle cx="368" cy="400" r="8"/><path d="M432,408h40a8,8,0,0,0,0-16H432a8,8,0,0,0,0,16Z"/><circle cx="344" cy="448" r="8"/><circle cx="368" cy="448" r="8"/><path d="M472,440H432a8,8,0,0,0,0,16h40a8,8,0,0,0,0-16Z"/><circle cx="40" cy="352" r="8"/><circle cx="64" cy="352" r="8"/><path d="M128,360h40a8,8,0,0,0,0-16H128a8,8,0,0,0,0,16Z"/><circle cx="40" cy="400" r="8"/><circle cx="64" cy="400" r="8"/><path d="M128,408h40a8,8,0,0,0,0-16H128a8,8,0,0,0,0,16Z"/><circle cx="40" cy="448" r="8"/><circle cx="64" cy="448" r="8"/><path d="M168,440H128a8,8,0,0,0,0,16h40a8,8,0,0,0,0-16Z"/></g></svg>
